
<svg width="100" height="100" viewBox="0 0 100 100" fill="none" xmlns="http://www.w3.org/2000/svg">
<circle cx="50" cy="50" r="50" fill="#EEF3F8"/>
<path d="M73.1726 25H30.1813C28.4034 25 26.957 26.4464 26.957 28.2243V61.1007C26.957 62.8786 28.4034 64.3251 30.1813 64.3251H34.9547L25.3227 73.3605C24.5836 74.054 24.1673 75.0056 24.1509 76.0402C24.134 77.0998 24.5521 78.1354 25.2982 78.8815C26.0437 79.6274 27.0811 80.0458 28.1392 80.0286C29.174 80.0121 30.1257 79.596 30.8191 78.8569L42.8757 66.0043C48.7348 70.0534 57.5952 69.2497 62.627 64.3252H73.1728C74.9507 64.3252 76.3972 62.8787 76.3972 61.1008V28.2243C76.397 26.4464 74.9505 25 73.1726 25ZM29.2513 77.386C28.9596 77.6969 28.5524 77.8719 28.1048 77.8791C27.6252 77.8868 27.1548 77.6981 26.8181 77.3614C26.4811 77.0246 26.2923 76.5554 26.3 76.0745C26.3072 75.627 26.4824 75.22 26.7933 74.9283L36.321 65.9909L38.1887 67.8586L29.2513 77.386ZM39.6602 66.2899L37.8896 64.5193L39.4769 63.0303C39.9929 63.6275 40.552 64.1865 41.1492 64.7025L39.6602 66.2899ZM37.7048 52.5026C37.7048 44.7982 43.9726 38.5304 51.677 38.5304C70.1875 39.2328 70.1825 65.7752 51.6768 66.4748C43.9726 66.4747 37.7048 60.2068 37.7048 52.5026ZM73.1726 62.1755H64.5667C72.5386 51.8316 64.8462 36.259 51.6768 36.381C39.0018 36.2574 31.1659 50.8492 38.1754 61.304L37.2462 62.1755H30.1813C29.5886 62.1755 29.1066 61.6934 29.1066 61.1007V33.5983H46.8401C48.2646 33.5454 48.2635 31.501 46.8401 31.4487H29.1066V28.2243C29.1066 27.6317 29.5886 27.1496 30.1813 27.1496H73.1726C73.7653 27.1496 74.2474 27.6317 74.2474 28.2243V31.4487H56.5131C55.0886 31.5016 55.0896 33.5459 56.5131 33.5983H74.2474V61.1007C74.2474 61.6934 73.7652 62.1755 73.1726 62.1755Z" fill="#084277"/>
<path d="M51.6778 31.4492H51.6769C51.0834 31.4492 50.6025 31.9304 50.6025 32.524C50.6554 33.9479 52.7 33.948 52.7525 32.524C52.7525 31.9304 52.2713 31.4492 51.6778 31.4492Z" fill="#084277"/>
<path d="M59.6102 47.9899L56.1904 44.5701C55.79 44.1537 55.0706 44.1538 54.6703 44.5701L51.6778 47.5626L48.6854 44.5702C48.285 44.1538 47.5657 44.1538 47.1653 44.5702L43.7454 47.99C43.3257 48.4097 43.3257 49.0903 43.7454 49.5101L46.7379 52.5025L43.7454 55.4949C43.3257 55.9146 43.3257 56.5952 43.7454 57.015L47.1653 60.4348C47.5657 60.8512 48.285 60.8512 48.6854 60.4348L51.6778 57.4424L54.6703 60.4349C55.0706 60.8512 55.79 60.8512 56.1904 60.4349L59.6102 57.0151C60.0299 56.5954 60.0299 55.9148 59.6102 55.495L56.6178 52.5026L59.6102 49.5102C60.03 49.0903 60.03 48.4097 59.6102 47.9899ZM54.3379 51.7424C53.9182 52.1621 53.9182 52.8427 54.3379 53.2625L57.3303 56.2549L55.4304 58.1549L52.4379 55.1624C52.0376 54.7461 51.318 54.7461 50.9178 55.1624L47.9254 58.1548L46.0255 56.2548L49.0179 53.2624C49.4376 52.8427 49.4376 52.1621 49.0179 51.7423L46.0255 48.7499L47.9254 46.8499L50.9178 49.8423C51.318 50.2587 52.0375 50.2587 52.4379 49.8423L55.4304 46.8498L57.3303 48.7498L54.3379 51.7424Z" fill="#084277"/>
</svg>
