<svg width="24" height="27" viewBox="0 0 24 27" fill="none" xmlns="http://www.w3.org/2000/svg">
<path d="M12.4348 3.15939H11.2754C6.90292 3.15939 4.71669 3.15939 3.35835 4.51774C2 5.87608 2 8.06231 2 12.4348V14.7536C2 19.126 2 21.3123 3.35835 22.6706C4.71669 24.029 6.90292 24.029 11.2754 24.029H12.4348" stroke="#222222" stroke-width="2.02899"/>
<path d="M11.2754 3.15939H15.9131C19.1924 3.15939 20.8321 3.15939 21.8508 4.17815C22.8696 5.19691 22.8696 6.83658 22.8696 10.1159V17.0724C22.8696 20.3518 22.8696 21.9914 21.8508 23.0102C20.8321 24.029 19.1924 24.029 15.9131 24.029H11.2754" stroke="#222222" stroke-width="2.02899" stroke-linecap="round" stroke-dasharray="2.75 3.19"/>
<path d="M12.4346 1.99997V25.1884" stroke="#222222" stroke-width="2.02899" stroke-linecap="round"/>
</svg>
