<svg width="276" height="159" viewBox="0 0 276 159" fill="none" xmlns="http://www.w3.org/2000/svg">
<path d="M38.3555 156.289C38.3814 156.368 38.3877 156.452 38.3738 156.534C38.3599 156.616 38.3262 156.693 38.2758 156.759C38.2253 156.826 38.1594 156.878 38.084 156.914C38.0085 156.949 37.9256 156.965 37.8425 156.961H2.11222C0.996448 156.961 0.996448 149.694 2.11222 149.694H37.8528C37.9356 149.69 38.0181 149.706 38.0933 149.741C38.1685 149.776 38.2342 149.829 38.2846 149.894C38.335 149.96 38.3688 150.037 38.3829 150.119C38.397 150.201 38.3912 150.284 38.3658 150.363C37.9195 151.749 37.9195 154.906 38.3555 156.289Z" fill="#4392F1"/>
<path opacity="0.8" d="M38.3049 150.543H16.623C15.7689 150.543 15.7689 156.112 16.623 156.112H38.3049C37.9381 154.714 37.9381 151.938 38.3049 150.543Z" fill="white"/>
<path opacity="0.2" d="M15.5425 156.289C15.5684 156.368 15.5747 156.452 15.5608 156.534C15.5469 156.616 15.5132 156.693 15.4628 156.759C15.4123 156.826 15.3464 156.878 15.271 156.914C15.1955 156.949 15.1126 156.965 15.0295 156.961H2.11222C0.996448 156.961 0.996448 149.694 2.11222 149.694H15.0398C15.1226 149.69 15.2051 149.706 15.2803 149.741C15.3555 149.776 15.4212 149.829 15.4716 149.894C15.522 149.96 15.5557 150.037 15.5699 150.119C15.584 150.201 15.5781 150.284 15.5528 150.363C15.1065 151.749 15.1065 154.906 15.5425 156.289Z" fill="black"/>
<path d="M7.62311 149.694H4.67081C3.55504 149.694 3.55504 156.961 4.67081 156.961H7.62311C6.5176 156.961 6.5176 149.694 7.62311 149.694Z" fill="#4392F1"/>
<path d="M9.94933 149.694H8.78995C7.67418 149.694 7.67418 156.961 8.78995 156.961H9.94933C8.82586 156.961 8.82586 149.694 9.94933 149.694Z" fill="#4392F1"/>
<path d="M0.0303148 149.091C-0.0928047 149.389 0.209865 149.694 0.620263 149.694H32.7544C34.0651 149.694 34.0651 143.161 32.7544 143.161H0.617697C0.207299 143.161 -0.0953702 143.464 0.0277493 143.764C0.540747 145.008 0.540748 147.847 0.0303148 149.091Z" fill="#263238"/>
<path opacity="0.2" d="M0.0303148 149.091C-0.0928047 149.389 0.209865 149.694 0.620263 149.694H16.377C17.6877 149.694 17.6877 143.161 16.377 143.161H0.617698C0.207299 143.161 -0.0953702 143.464 0.0277493 143.764C0.540747 145.008 0.540748 147.847 0.0303148 149.091Z" fill="black"/>
<path opacity="0.8" d="M0.0878906 143.923H15.7343C16.7372 143.923 16.7372 148.93 15.7343 148.93H0.0878906C0.518809 147.665 0.518809 145.18 0.0878906 143.923Z" fill="white"/>
<path opacity="0.2" d="M20.9295 144.618C20.8321 144.328 21.1142 144.046 21.5041 144.046H30.4995C31.4537 144.046 31.4537 148.807 30.4995 148.807H21.5041C21.1142 148.807 20.8321 148.527 20.9295 148.237C21.2374 147.05 21.2374 145.805 20.9295 144.618Z" fill="white"/>
<path d="M85.9635 146.175C85.9919 146.262 86 146.354 85.9873 146.444C85.9746 146.534 85.9413 146.621 85.89 146.696C85.8388 146.772 85.7709 146.835 85.6916 146.88C85.6123 146.925 85.5237 146.951 85.4326 146.957H47.6759C46.496 146.957 46.496 138.493 47.6759 138.493H85.4326C85.5222 138.499 85.6093 138.525 85.6873 138.57C85.7654 138.614 85.8324 138.676 85.8835 138.749C85.9345 138.823 85.9682 138.908 85.982 138.997C85.9959 139.085 85.9896 139.176 85.9635 139.262C85.5044 140.891 85.5044 144.567 85.9635 146.175Z" fill="#4392F1"/>
<path opacity="0.5" d="M85.9635 146.175C85.9919 146.262 86 146.354 85.9873 146.444C85.9746 146.534 85.9413 146.621 85.89 146.696C85.8388 146.772 85.7709 146.835 85.6916 146.88C85.6123 146.925 85.5237 146.951 85.4326 146.957H47.6759C46.496 146.957 46.496 138.493 47.6759 138.493H85.4326C85.5222 138.499 85.6093 138.525 85.6873 138.57C85.7654 138.614 85.8324 138.676 85.8835 138.749C85.9345 138.823 85.9682 138.908 85.982 138.997C85.9959 139.085 85.9896 139.176 85.9635 139.262C85.5044 140.891 85.5044 144.567 85.9635 146.175Z" fill="white"/>
<path opacity="0.8" d="M85.9112 139.488H63.0033C62.1005 139.488 62.1005 145.967 63.0033 145.967H85.9112C85.5188 144.343 85.5188 141.114 85.9112 139.488Z" fill="white"/>
<path opacity="0.6" d="M61.8629 146.175C61.8913 146.262 61.8994 146.354 61.8867 146.444C61.8739 146.534 61.8406 146.621 61.7894 146.696C61.7381 146.772 61.6702 146.835 61.5909 146.88C61.5117 146.925 61.423 146.951 61.3319 146.957H47.6759C46.496 146.957 46.496 138.493 47.6759 138.493H61.3319C61.4216 138.499 61.5086 138.525 61.5867 138.57C61.6648 138.614 61.7318 138.676 61.7828 138.749C61.8338 138.823 61.8675 138.908 61.8814 138.997C61.8953 139.085 61.8889 139.176 61.8629 139.262C61.4089 140.891 61.4089 144.567 61.8629 146.175Z" fill="#4392F1"/>
<path opacity="0.5" d="M56.3223 139.126C56.3491 139.06 56.3599 138.988 56.3539 138.917C56.3479 138.846 56.3253 138.777 56.2879 138.716C56.2505 138.655 56.1993 138.604 56.1384 138.567C56.0776 138.529 56.0088 138.507 55.9376 138.5H50.7306C49.5507 138.5 49.5507 146.965 50.7306 146.965H55.9376C56.0089 146.959 56.0777 146.935 56.1385 146.898C56.1993 146.86 56.2504 146.808 56.2878 146.747C56.3252 146.686 56.3478 146.617 56.3538 146.546C56.3598 146.475 56.349 146.403 56.3223 146.337C55.7965 144.764 55.7965 140.694 56.3223 139.126Z" fill="white"/>
<path d="M83.2539 156.029C83.2843 156.142 83.2874 156.26 83.2631 156.374C83.2387 156.488 83.1876 156.594 83.1138 156.685C83.0401 156.775 82.946 156.846 82.8392 156.893C82.7324 156.939 82.6161 156.96 82.4998 156.953H43.2708C41.5959 156.953 41.5933 146.949 43.2708 146.949H82.5152C82.6315 146.942 82.7478 146.962 82.8546 147.009C82.9614 147.056 83.0555 147.127 83.1292 147.217C83.2029 147.308 83.2541 147.414 83.2784 147.528C83.3028 147.642 83.2997 147.76 83.2693 147.873C82.5998 149.778 82.6024 154.126 83.2539 156.029Z" fill="#4392F1"/>
<path opacity="0.2" d="M83.2539 156.029C83.2843 156.142 83.2874 156.26 83.2631 156.374C83.2387 156.488 83.1876 156.594 83.1138 156.685C83.0401 156.775 82.946 156.846 82.8392 156.893C82.7324 156.939 82.6161 156.96 82.4998 156.953H43.2708C41.5959 156.953 41.5933 146.949 43.2708 146.949H82.5152C82.6315 146.942 82.7478 146.962 82.8546 147.009C82.9614 147.056 83.0555 147.127 83.1292 147.217C83.2029 147.308 83.2541 147.414 83.2784 147.528C83.3028 147.642 83.2997 147.76 83.2693 147.873C82.5998 149.778 82.6024 154.126 83.2539 156.029Z" fill="white"/>
<path opacity="0.8" d="M83.1764 148.119H59.458C58.1755 148.119 58.1755 155.783 59.458 155.783H83.179C82.6301 153.862 82.6301 150.043 83.1764 148.119Z" fill="white"/>
<path opacity="0.6" d="M57.8374 156.035C57.8683 156.147 57.8719 156.265 57.8479 156.379C57.8239 156.493 57.7731 156.6 57.6995 156.69C57.626 156.781 57.532 156.852 57.4252 156.899C57.3185 156.945 57.2021 156.966 57.0859 156.959H43.2708C41.5959 156.959 41.5933 146.955 43.2708 146.955H57.0859C57.2022 146.948 57.3185 146.968 57.4253 147.015C57.5321 147.062 57.6262 147.133 57.6999 147.223C57.7736 147.313 57.8248 147.42 57.8491 147.534C57.8735 147.648 57.8704 147.766 57.84 147.878C57.1859 149.784 57.1859 154.129 57.8374 156.035Z" fill="#4392F1"/>
<path opacity="0.5" d="M49.5621 147.303C49.5835 147.267 49.5943 147.225 49.5935 147.182C49.5927 147.14 49.5802 147.099 49.5574 147.063C49.5346 147.027 49.5024 146.998 49.4643 146.98C49.4262 146.961 49.3837 146.953 49.3415 146.957H46.9945C45.3221 146.957 45.3221 156.96 46.9945 156.96H49.3517C49.394 156.964 49.4365 156.957 49.4746 156.938C49.5127 156.919 49.5449 156.89 49.5677 156.855C49.5905 156.819 49.603 156.778 49.6038 156.735C49.6046 156.693 49.5937 156.651 49.5723 156.614C48.554 155.068 48.554 148.847 49.5621 147.303Z" fill="white"/>
<path opacity="0.5" d="M53.2261 147.304C53.2473 147.267 53.2579 147.225 53.257 147.182C53.2561 147.14 53.2436 147.099 53.2209 147.063C53.1982 147.027 53.1662 146.998 53.1282 146.979C53.0903 146.96 53.0479 146.952 53.0055 146.955H50.6586C48.9862 146.955 48.9862 156.958 50.6586 156.958H53.0055C53.0476 156.962 53.0897 156.953 53.1274 156.935C53.1651 156.916 53.197 156.887 53.2194 156.851C53.2419 156.815 53.2542 156.774 53.2549 156.732C53.2556 156.69 53.2448 156.648 53.2236 156.612C52.2181 155.068 52.2181 148.845 53.2261 147.304Z" fill="white"/>
<path d="M82.87 133.178C82.8246 132.466 82.6571 131.767 82.375 131.111L82.6059 130.998C82.8991 131.682 83.0726 132.41 83.1189 133.153L82.87 133.178Z" fill="#4392F1"/>
<path d="M81.2601 130H74.8887V130.256H81.2601V130Z" fill="#4392F1"/>
<path d="M39.7366 137.8C39.6058 138.149 39.9264 138.501 40.3599 138.501H81.2612C82.6437 138.501 82.6437 130.898 81.2612 130.898H40.3599C39.9264 130.898 39.6058 131.252 39.7366 131.601C40.2752 133.045 40.2752 136.351 39.7366 137.8Z" fill="#4392F1"/>
<path opacity="0.2" d="M39.7366 137.8C39.6058 138.149 39.9264 138.501 40.3599 138.501H63.9578C65.3429 138.501 65.3429 130.898 63.9578 130.898H40.3599C39.9264 130.898 39.6058 131.252 39.7366 131.601C40.2752 133.045 40.2752 136.351 39.7366 137.8Z" fill="black"/>
<path opacity="0.8" d="M39.7969 131.788H63.2716C64.3336 131.788 64.3336 137.613 63.2716 137.613H39.7969C40.2509 136.151 40.2509 133.25 39.7969 131.788Z" fill="white"/>
<path opacity="0.2" d="M68.7665 132.593C68.6639 132.257 68.9614 131.932 69.3718 131.932H78.8777C79.8857 131.932 79.8857 137.469 78.8777 137.469H69.3718C68.9614 137.469 68.6639 137.144 68.7665 136.805C69.1025 135.741 69.1025 133.66 68.7665 132.593Z" fill="white"/>
<g filter="url(#filter0_d_5211_835)">
<path d="M125.61 0.966309H32.422C30.5321 0.966309 29 2.49841 29 4.38835V90.122C29 92.0119 30.5321 93.544 32.422 93.544H125.61C127.5 93.544 129.032 92.0119 129.032 90.122V4.38835C129.032 2.49841 127.5 0.966309 125.61 0.966309Z" fill="white"/>
</g>
<g filter="url(#filter1_d_5211_835)">
<path d="M109.613 101.836L101.945 91.6798L117.281 91.6798L109.613 101.836Z" fill="white"/>
</g>
<path d="M36.5595 7.3818C36.5595 7.72455 36.4578 8.0596 36.2672 8.34452C36.0767 8.62944 35.8059 8.85142 35.4891 8.98235C35.1724 9.11327 34.8239 9.14726 34.4878 9.08001C34.1517 9.01276 33.8431 8.8473 33.6011 8.60457C33.3591 8.36184 33.1946 8.05276 33.1283 7.71646C33.0621 7.38017 33.0972 7.03178 33.229 6.71541C33.3609 6.39904 33.5837 6.12892 33.8692 5.93925C34.1547 5.74957 34.4901 5.64888 34.8328 5.64991C35.06 5.64991 35.285 5.69474 35.4948 5.78184C35.7046 5.86894 35.8952 5.99659 36.0556 6.15748C36.216 6.31837 36.3431 6.50934 36.4295 6.71943C36.516 6.92952 36.5602 7.15461 36.5595 7.3818Z" fill="#263238"/>
<path d="M39.8712 9.1091C40.8248 9.1091 41.5979 8.33605 41.5979 7.38243C41.5979 6.42882 40.8248 5.65576 39.8712 5.65576C38.9176 5.65576 38.1445 6.42882 38.1445 7.38243C38.1445 8.33605 38.9176 9.1091 39.8712 9.1091Z" fill="#263238"/>
<path d="M44.922 9.1091C45.8756 9.1091 46.6487 8.33605 46.6487 7.38243C46.6487 6.42882 45.8756 5.65576 44.922 5.65576C43.9684 5.65576 43.1953 6.42882 43.1953 7.38243C43.1953 8.33605 43.9684 9.1091 44.922 9.1091Z" fill="#263238"/>
<path d="M129.032 12.2914C129.032 12.3696 106.638 12.427 79.0161 12.427C51.3946 12.427 29 12.3696 29 12.2914C29 12.2131 51.3893 12.1558 79.0161 12.1558C106.643 12.1558 129.032 12.2131 129.032 12.2914Z" fill="#263238"/>
<path d="M93.1475 47.1637C93.1475 47.1637 93.184 47.1063 93.2675 47.002L93.3353 46.9133L93.4031 46.7933C93.4608 46.6963 93.5114 46.5952 93.5544 46.4908C93.5544 46.4334 93.6066 46.3708 93.6275 46.303L93.6901 46.0839C93.7129 46.0034 93.7304 45.9215 93.7422 45.8387C93.7422 45.75 93.7735 45.6613 93.7787 45.5674C93.8128 45.1336 93.7918 44.6971 93.7161 44.2685C93.4965 43.0954 93.0952 41.9637 92.5268 40.9143C91.7938 39.5136 90.9366 38.1815 89.9655 36.9341C88.7968 35.4169 87.5225 33.984 86.1522 32.6461C84.5834 31.1062 82.9083 29.6785 81.1391 28.3738C80.2053 27.6852 79.2194 27.0175 78.1813 26.3915C77.1229 25.7449 76.0233 25.1681 74.8897 24.6648C73.7246 24.133 72.498 23.7475 71.2381 23.5172C70.594 23.4025 69.9361 23.3866 69.2871 23.4702C68.9614 23.5165 68.6436 23.6078 68.3429 23.7415C68.0481 23.8863 67.7814 24.0823 67.5553 24.3205C67.3395 24.5704 67.1731 24.8589 67.0649 25.1708C66.9669 25.4853 66.9124 25.8118 66.9032 26.1411C66.8946 26.7959 66.9843 27.4483 67.1692 28.0764C67.5433 29.3054 68.069 30.4829 68.7342 31.5819C69.3612 32.651 70.0582 33.6775 70.8208 34.6545C71.5615 35.6143 72.3388 36.522 73.1265 37.3723C74.6248 38.9817 76.2356 40.4826 77.9466 41.8637C79.4313 43.0742 81.0002 44.1777 82.6415 45.1658C83.9917 45.9868 85.4128 46.6851 86.8877 47.2524C87.9965 47.6948 89.1663 47.9657 90.3567 48.0557C90.7899 48.0771 91.2241 48.0473 91.6504 47.967C91.7443 47.967 91.8277 47.9201 91.9112 47.8992C91.9927 47.8778 92.0728 47.8517 92.1512 47.821L92.3598 47.7323L92.5424 47.6384C92.6418 47.5844 92.736 47.5215 92.8241 47.4506L92.9337 47.3724L93.0171 47.2941C93.111 47.2002 93.1632 47.1585 93.1632 47.1585L93.0223 47.2993L92.9389 47.3776L92.8345 47.461C92.7454 47.5331 92.6493 47.596 92.5476 47.6488L92.3755 47.7636L92.1616 47.8523C92.0856 47.8845 92.0071 47.9107 91.9269 47.9305C91.8398 47.9604 91.7509 47.9848 91.6608 48.0036C91.232 48.0914 90.7936 48.1229 90.3567 48.0975C89.1631 48.0163 87.9894 47.7506 86.8773 47.3098C85.3971 46.7431 83.9707 46.0448 82.6154 45.2232C80.9743 44.2349 79.4054 43.1314 77.9205 41.9211C76.2047 40.5417 74.5904 39.0407 73.09 37.4297C72.3023 36.5794 71.525 35.6717 70.7791 34.7119C70.0184 33.7298 69.3214 32.7001 68.6925 31.6289C68.0264 30.5248 67.5007 29.342 67.1275 28.1077C66.9375 27.4716 66.846 26.8101 66.8562 26.1463C66.8672 25.8117 66.9234 25.48 67.0232 25.1604C67.1416 24.8371 67.3184 24.5382 67.5448 24.2788C67.776 24.0309 68.0522 23.8291 68.3586 23.6841C68.6661 23.547 68.9907 23.4522 69.3237 23.4024C69.9813 23.3187 70.6478 23.3346 71.3007 23.4494C72.5698 23.6816 73.8052 24.0706 74.9784 24.6074C76.1143 25.1114 77.2157 25.6899 78.2752 26.3393C79.3185 26.9653 80.3044 27.633 81.2382 28.3268C83.01 29.6339 84.6854 31.0669 86.2513 32.6148C87.6247 33.955 88.9008 35.3914 90.0698 36.9132C91.0381 38.1642 91.8918 39.4998 92.6207 40.9039C93.1878 41.9589 93.5873 43.0958 93.8048 44.2737C93.8775 44.7062 93.895 45.1462 93.857 45.5831C93.849 45.6726 93.835 45.7615 93.8153 45.8491C93.807 45.9325 93.7895 46.0148 93.7631 46.0943L93.7005 46.3186C93.6785 46.3828 93.6524 46.4456 93.6222 46.5064C93.583 46.6134 93.5304 46.7151 93.4657 46.809C93.4474 46.8512 93.4247 46.8914 93.3979 46.9289L93.3301 47.0176L93.1475 47.1637Z" fill="#4392F1"/>
<path d="M97.8807 35.7281V35.5299V35.4203C97.8807 35.3786 97.8807 35.3369 97.8546 35.2847C97.8365 35.1724 97.8068 35.0622 97.7659 34.956C97.7659 34.8987 97.7242 34.8309 97.6981 34.7683L97.5938 34.5596C97.5599 34.484 97.518 34.4122 97.4686 34.3457C97.4236 34.2674 97.373 34.1925 97.3173 34.1214C97.0576 33.7727 96.7523 33.4604 96.4096 33.1929C95.4609 32.4644 94.4051 31.8872 93.2797 31.4818C91.8012 30.9229 90.2753 30.4986 88.7204 30.2142C86.8275 29.8589 84.9117 29.6392 82.9875 29.5569C80.7907 29.4499 78.5892 29.497 76.399 29.6978C75.2462 29.8073 74.0672 29.9691 72.8726 30.1934C71.6523 30.4135 70.4481 30.7149 69.268 31.0958C68.0414 31.4673 66.867 31.9932 65.7729 32.6608C65.2155 33.0028 64.7141 33.4286 64.2862 33.9232C64.0746 34.174 63.899 34.4532 63.7646 34.7526C63.6357 35.0567 63.5649 35.3823 63.5559 35.7124C63.5662 36.0419 63.6351 36.367 63.7594 36.6723C63.8958 36.9706 64.0712 37.2496 64.281 37.5017C64.7119 37.9967 65.2149 38.424 65.7729 38.7693C66.8686 39.4339 68.0426 39.9596 69.268 40.3343C70.4495 40.7103 71.6534 41.0117 72.8726 41.2367C74.0672 41.4611 75.2462 41.6176 76.399 41.7271C78.5889 41.9321 80.7906 41.9809 82.9875 41.8732C84.9123 41.7962 86.8295 41.5871 88.7257 41.2472C90.2805 40.9628 91.8064 40.5385 93.2849 39.9796C94.4084 39.57 95.4636 38.9932 96.4148 38.2685C96.7563 37.9996 97.0614 37.6875 97.3225 37.34C97.3783 37.2672 97.4289 37.1905 97.4738 37.1105C97.5232 37.044 97.5652 36.9722 97.599 36.8966L97.7033 36.6932C97.7294 36.6253 97.7503 36.5627 97.7711 36.5001C97.8125 36.3941 97.8423 36.2839 97.8598 36.1715C97.8598 36.1246 97.8598 36.0828 97.8859 36.0411V35.9315V35.7281C97.8859 35.7281 97.8859 35.7959 97.8859 35.9315V36.0411C97.8859 36.0828 97.8859 36.1246 97.8859 36.1767C97.8698 36.2889 97.8418 36.3991 97.8024 36.5054C97.8024 36.568 97.7607 36.6306 97.7346 36.6984L97.6355 36.907C97.5986 36.9827 97.5568 37.0559 97.5103 37.1261C97.4641 37.2037 97.4136 37.2785 97.359 37.3504C97.0998 37.7026 96.7945 38.0184 96.4513 38.2894C95.504 39.024 94.4481 39.6065 93.3214 40.0161C91.842 40.5813 90.3142 41.0108 88.757 41.2993C86.8622 41.6559 84.9448 41.879 83.0188 41.9671C80.8205 42.0785 78.617 42.0331 76.4251 41.8314C75.267 41.7219 74.0829 41.5654 72.8883 41.3411C71.6657 41.1154 70.4584 40.814 69.2732 40.4386C68.0421 40.0661 66.8626 39.5403 65.7625 38.8737C65.1979 38.5268 64.6895 38.0958 64.2549 37.5956C64.0434 37.3371 63.8679 37.051 63.7333 36.7453C63.5924 36.4339 63.5195 36.096 63.5195 35.7542C63.5195 35.4124 63.5924 35.0745 63.7333 34.763C63.8699 34.4584 64.0452 34.1726 64.2549 33.9127C64.6941 33.4132 65.2058 32.9823 65.7729 32.6347C66.8753 31.9689 68.0564 31.4432 69.2889 31.0697C70.4709 30.6895 71.6768 30.388 72.8987 30.1673C74.0985 29.943 75.2775 29.7865 76.4355 29.6769C78.6127 29.4651 80.8022 29.4076 82.9875 29.5048C84.9138 29.5919 86.8314 29.8168 88.7257 30.1777C90.283 30.4636 91.8108 30.8914 93.2901 31.4558C94.4168 31.8653 95.4727 32.4479 96.42 33.1824C96.762 33.4548 97.0671 33.7704 97.3277 34.1214C97.3835 34.1942 97.4341 34.2709 97.479 34.3509C97.5266 34.4205 97.5684 34.4937 97.6042 34.57L97.7033 34.7735C97.7294 34.8413 97.7503 34.9091 97.7711 34.9665C97.8106 35.0745 97.8386 35.1864 97.8546 35.3003C97.8546 35.3473 97.8546 35.3942 97.8546 35.4308V35.5455C97.8807 35.6603 97.8807 35.7281 97.8807 35.7281Z" fill="#4392F1"/>
<path d="M91.609 21.5025L91.4368 21.393L91.3429 21.3304C91.3044 21.3082 91.2643 21.2891 91.2229 21.273C91.1235 21.2187 91.0186 21.175 90.91 21.1426C90.8474 21.1426 90.7848 21.0957 90.7169 21.08L90.4926 21.0331C90.4118 21.0154 90.3299 21.0032 90.2475 20.9965C90.1571 20.9912 90.0665 20.9912 89.9762 20.9965C89.5406 20.991 89.1059 21.0401 88.6825 21.1426C87.5281 21.4491 86.427 21.9293 85.417 22.5667C84.0691 23.3914 82.7997 24.3378 81.6245 25.3941C80.1908 26.6645 78.8485 28.0347 77.6078 29.4943C76.1779 31.164 74.8687 32.9334 73.6902 34.789C73.0746 35.7645 72.4695 36.8078 71.9166 37.8511C71.3432 38.9507 70.8431 40.0869 70.4194 41.2523C69.9708 42.4544 69.6712 43.7071 69.5274 44.9821C69.4577 45.6332 69.4876 46.2911 69.6161 46.9331C69.6876 47.2546 69.8016 47.5651 69.9552 47.8564C70.1167 48.1441 70.3308 48.399 70.5864 48.6076C70.8521 48.8009 71.1509 48.9441 71.468 49.0301C71.7871 49.1075 72.1153 49.1408 72.4435 49.1293C73.0982 49.0928 73.7437 48.9574 74.3579 48.7276C75.5582 48.2723 76.6972 47.6695 77.7487 46.9331C78.7713 46.2324 79.7472 45.4657 80.6699 44.6378C81.5776 43.8293 82.4279 42.9946 83.2208 42.1496C84.7215 40.5431 86.1073 38.8331 87.3679 37.0321C88.4734 35.4679 89.467 33.8276 90.3414 32.1234C91.0704 30.7216 91.671 29.2568 92.1358 27.7467C92.5008 26.6084 92.6891 25.4209 92.694 24.2256C92.6925 23.7918 92.6329 23.3602 92.5166 22.9423C92.5166 22.8484 92.4593 22.7649 92.4332 22.6815C92.4071 22.598 92.3758 22.525 92.3393 22.452L92.2402 22.2485C92.2036 22.1859 92.1619 22.1285 92.1306 22.0764C92.0714 21.9784 92.0014 21.8875 91.922 21.8051L91.8385 21.7008L91.755 21.6277L91.609 21.4921L91.7603 21.6225L91.8437 21.6956C91.8758 21.7262 91.9055 21.7594 91.9324 21.7947C92.011 21.8777 92.0809 21.9686 92.141 22.0659C92.1776 22.1233 92.2193 22.1755 92.2558 22.2381L92.3549 22.4467C92.3952 22.5199 92.4283 22.5968 92.454 22.6763C92.4801 22.7597 92.5166 22.8432 92.5375 22.9371C92.6579 23.3562 92.7211 23.7896 92.7253 24.2256C92.7272 25.4241 92.5424 26.6156 92.1776 27.7572C91.7146 29.2714 91.1176 30.7413 90.3935 32.1495C89.5194 33.8571 88.5257 35.5009 87.4201 37.0687C86.1626 38.8753 84.7766 40.589 83.273 42.1965C82.48 43.0468 81.6297 43.8867 80.7169 44.6952C79.7921 45.5245 78.8146 46.2929 77.7904 46.9957C76.735 47.7377 75.5906 48.3441 74.384 48.8006C73.763 49.0326 73.1105 49.1698 72.4487 49.2075C72.1119 49.2188 71.7751 49.1855 71.4471 49.1084C71.1204 49.0163 70.8129 48.8661 70.5394 48.665C70.2758 48.4506 70.0546 48.1887 69.8874 47.893C69.7296 47.5951 69.612 47.2776 69.5378 46.9488C69.4113 46.2994 69.3831 45.6347 69.4544 44.9769C69.5956 43.6941 69.897 42.4341 70.3516 41.2262C70.7753 40.0591 71.2754 38.9212 71.8488 37.8198C72.4069 36.7348 73.0068 35.7019 73.6276 34.7212C74.8131 32.8664 76.1274 31.0971 77.5609 29.4264C78.8038 27.9671 80.1496 26.5986 81.588 25.3315C82.7697 24.2764 84.0442 23.3301 85.3961 22.5041C86.4113 21.8694 87.5179 21.3944 88.6773 21.0957C89.102 20.9906 89.5387 20.9415 89.9762 20.9496C90.0701 20.9496 90.1588 20.9496 90.2475 20.9496C90.3317 20.9559 90.4153 20.9681 90.4978 20.9861L90.7222 21.0331L90.9152 21.1009C91.024 21.1348 91.1289 21.1803 91.2282 21.2365C91.2696 21.2525 91.3097 21.2717 91.3481 21.2939L91.442 21.3617L91.609 21.5025Z" fill="#4392F1"/>
<path d="M63.3455 42.818C63.4341 42.9071 63.4944 43.0205 63.5187 43.1439C63.5429 43.2672 63.5301 43.395 63.4819 43.5111C63.4336 43.6272 63.352 43.7264 63.2474 43.7962C63.1429 43.866 63.02 43.9032 62.8942 43.9032C62.7685 43.9032 62.6456 43.866 62.541 43.7962C62.4364 43.7264 62.3549 43.6272 62.3066 43.5111C62.2583 43.395 62.2455 43.2672 62.2698 43.1439C62.2941 43.0205 62.3543 42.9071 62.443 42.818C62.5021 42.7585 62.5724 42.7113 62.6499 42.6791C62.7273 42.6469 62.8104 42.6304 62.8942 42.6304C62.9781 42.6304 63.0611 42.6469 63.1386 42.6791C63.216 42.7113 63.2863 42.7585 63.3455 42.818Z" fill="#4392F1"/>
<path d="M99.334 23.0524C99.3351 23.1796 99.2983 23.3041 99.2284 23.4103C99.1586 23.5165 99.0587 23.5996 98.9416 23.6489C98.8244 23.6983 98.6952 23.7118 98.5704 23.6876C98.4456 23.6634 98.3308 23.6027 98.2406 23.5132C98.1503 23.4237 98.0887 23.3094 98.0635 23.1848C98.0383 23.0602 98.0507 22.9309 98.0991 22.8133C98.1475 22.6958 98.2298 22.5953 98.3354 22.5245C98.441 22.4538 98.5653 22.416 98.6924 22.416C98.7764 22.4153 98.8597 22.4313 98.9375 22.463C99.0154 22.4947 99.0861 22.5414 99.1458 22.6006C99.2054 22.6597 99.2528 22.7301 99.2851 22.8077C99.3174 22.8852 99.334 22.9684 99.334 23.0524Z" fill="#4392F1"/>
<path d="M67.3723 44.9151C67.3723 44.9471 67.3628 44.9784 67.345 45.005C67.3272 45.0316 67.302 45.0523 67.2724 45.0645C67.2429 45.0768 67.2104 45.08 67.179 45.0737C67.1476 45.0675 67.1188 45.0521 67.0962 45.0295C67.0736 45.0069 67.0582 44.9781 67.0519 44.9467C67.0457 44.9153 67.0489 44.8828 67.0611 44.8532C67.0734 44.8237 67.0941 44.7984 67.1207 44.7807C67.1473 44.7629 67.1786 44.7534 67.2105 44.7534C67.2534 44.7534 67.2946 44.7705 67.3249 44.8008C67.3552 44.8311 67.3723 44.8722 67.3723 44.9151Z" fill="#4392F1"/>
<path d="M70.8332 27.0431C70.8332 27.075 70.8237 27.1063 70.8059 27.1329C70.7882 27.1595 70.7629 27.1802 70.7334 27.1925C70.7038 27.2047 70.6713 27.2079 70.6399 27.2017C70.6086 27.1954 70.5797 27.18 70.5571 27.1574C70.5345 27.1348 70.5191 27.106 70.5129 27.0746C70.5066 27.0432 70.5098 27.0107 70.5221 26.9812C70.5343 26.9516 70.555 26.9264 70.5816 26.9086C70.6082 26.8908 70.6395 26.8813 70.6715 26.8813C70.7144 26.8813 70.7555 26.8984 70.7858 26.9287C70.8161 26.959 70.8332 27.0002 70.8332 27.0431Z" fill="#4392F1"/>
<path d="M96.1281 35.7286C96.1281 35.7715 96.1111 35.8126 96.0807 35.843C96.0504 35.8733 96.0093 35.8903 95.9664 35.8903C95.9235 35.8903 95.8824 35.8733 95.852 35.843C95.8217 35.8126 95.8047 35.7715 95.8047 35.7286C95.8047 35.6857 95.8217 35.6446 95.852 35.6143C95.8824 35.5839 95.9235 35.5669 95.9664 35.5669C96.0093 35.5669 96.0504 35.5839 96.0807 35.6143C96.1111 35.6446 96.1281 35.6857 96.1281 35.7286Z" fill="#4392F1"/>
<path d="M98.3801 28.1744C98.3801 28.2173 98.363 28.2584 98.3327 28.2888C98.3024 28.3191 98.2612 28.3361 98.2184 28.3361C98.1755 28.3361 98.1343 28.3191 98.104 28.2888C98.0737 28.2584 98.0566 28.2173 98.0566 28.1744C98.0566 28.1315 98.0737 28.0904 98.104 28.0601C98.1343 28.0297 98.1755 28.0127 98.2184 28.0127C98.2612 28.0127 98.3024 28.0297 98.3327 28.0601C98.363 28.0904 98.3801 28.1315 98.3801 28.1744Z" fill="#4392F1"/>
<path d="M87.4598 39.2914H85.4566V28.3837C85.4566 27.1482 84.9658 25.9633 84.0922 25.0897C83.2186 24.2161 82.0337 23.7253 80.7982 23.7253C79.5628 23.7253 78.3779 24.2161 77.5043 25.0897C76.6307 25.9633 76.1399 27.1482 76.1399 28.3837V39.2914H74.1211V28.3837C74.1211 26.6169 74.8229 24.9225 76.0722 23.6733C77.3215 22.424 79.0159 21.7222 80.7826 21.7222C82.5493 21.7222 84.2437 22.424 85.493 23.6733C86.7423 24.9225 87.4441 26.6169 87.4441 28.3837L87.4598 39.2914Z" fill="#4392F1"/>
<g opacity="0.3">
<path d="M87.4539 39.2919H85.4508V28.3842C85.4508 27.1487 84.96 25.9638 84.0863 25.0902C83.2127 24.2166 82.0279 23.7258 80.7924 23.7258C79.5569 23.7258 78.372 24.2166 77.4984 25.0902C76.6248 25.9638 76.134 27.1487 76.134 28.3842V39.2919H74.1152V28.3842C74.1152 26.6174 74.8171 24.923 76.0663 23.6738C77.3156 22.4245 79.01 21.7227 80.7767 21.7227C82.5435 21.7227 84.2379 22.4245 85.4871 23.6738C86.7364 24.923 87.4382 26.6174 87.4382 28.3842L87.4539 39.2919Z" fill="black"/>
</g>
<path d="M88.5999 34.4404H72.9921C72.3439 34.4404 71.8184 34.9659 71.8184 35.6141V44.7848C71.8184 45.433 72.3439 45.9585 72.9921 45.9585H88.5999C89.2482 45.9585 89.7737 45.433 89.7737 44.7848V35.6141C89.7737 34.9659 89.2482 34.4404 88.5999 34.4404Z" fill="#4392F1"/>
<g opacity="0.3">
<path d="M82.2957 38.703C82.2979 38.4229 82.2217 38.1478 82.0758 37.9087C81.9298 37.6696 81.72 37.476 81.4699 37.3499C81.2198 37.2238 80.9394 37.1701 80.6604 37.1949C80.3814 37.2197 80.1149 37.322 79.8909 37.4902C79.667 37.6585 79.4945 37.886 79.3931 38.1471C79.2916 38.4082 79.2651 38.6924 79.3167 38.9677C79.3682 39.2431 79.4957 39.4985 79.6847 39.7052C79.8738 39.9119 80.1168 40.0617 80.3864 40.1375V42.3806H81.2002V40.1375C81.5145 40.0509 81.7917 39.8638 81.9895 39.6047C82.1873 39.3456 82.2949 39.0289 82.2957 38.703Z" fill="black"/>
</g>
<path d="M72.7775 44.8683C72.7357 44.8683 72.6992 42.9486 72.6992 40.5803C72.6992 38.212 72.7357 36.2871 72.7775 36.2871C72.8192 36.2871 72.8505 38.2068 72.8505 40.5803C72.8505 42.9538 72.814 44.8683 72.7775 44.8683Z" fill="#FAFAFA"/>
<path d="M79.622 40.6216C79.622 40.6216 79.5489 40.6216 79.4446 40.5225C79.2968 40.4124 79.1667 40.2805 79.0586 40.1312C78.8686 39.8853 78.7358 39.6 78.6702 39.2962C78.6045 38.9924 78.6075 38.6778 78.679 38.3753C78.7505 38.0729 78.8887 37.7902 79.0834 37.5479C79.2781 37.3057 79.5245 37.11 79.8046 36.9752C79.9679 36.8876 80.1439 36.826 80.3262 36.7926C80.3934 36.7801 80.4624 36.7801 80.5297 36.7926C80.2991 36.8709 80.0743 36.965 79.8567 37.0743C79.6021 37.2148 79.3796 37.4069 79.2036 37.6384C79.0276 37.8699 78.9019 38.1357 78.8346 38.4186C78.7673 38.7015 78.7599 38.9954 78.8129 39.2813C78.8658 39.5673 78.9779 39.839 79.1421 40.079C79.2872 40.2725 79.4477 40.4539 79.622 40.6216Z" fill="#FAFAFA"/>
<path d="M107.454 55.834H52.1743C49.4892 55.834 47.3125 58.0107 47.3125 60.6958V61.2905C47.3125 63.9756 49.4892 66.1523 52.1743 66.1523H107.454C110.139 66.1523 112.316 63.9756 112.316 61.2905V60.6958C112.316 58.0107 110.139 55.834 107.454 55.834Z" fill="#F5F5F5"/>
<path d="M107.926 69.981H52.647C49.9619 69.981 47.7852 72.1577 47.7852 74.8428V75.4374C47.7852 78.1225 49.9619 80.2992 52.647 80.2992H107.926C110.612 80.2992 112.788 78.1225 112.788 75.4374V74.8428C112.788 72.1577 110.612 69.981 107.926 69.981Z" fill="#F5F5F5"/>
<path d="M57.582 60.9089V59.417H58.2028V60.8881C58.2028 61.4097 58.4219 61.6027 58.7975 61.6027C59.1731 61.6027 59.3922 61.3941 59.3922 60.8881V59.417H60.0025V60.9089C60.0025 61.2299 59.875 61.5377 59.648 61.7647C59.4211 61.9916 59.1132 62.1192 58.7923 62.1192C58.4713 62.1192 58.1635 61.9916 57.9365 61.7647C57.7095 61.5377 57.582 61.2299 57.582 60.9089Z" fill="#263238"/>
<path d="M60.3711 61.8958L60.5641 61.468C60.7803 61.5967 61.0271 61.6652 61.2788 61.6662C61.5552 61.6662 61.6544 61.5932 61.6544 61.4784C61.6544 61.1446 60.418 61.4784 60.418 60.6699C60.418 60.2786 60.7676 60.0022 61.3675 60.0022C61.641 59.9978 61.9114 60.0605 62.1552 60.1847L61.9569 60.6073C61.7775 60.505 61.5739 60.4527 61.3675 60.456C61.1014 60.456 60.9866 60.5395 60.9866 60.6438C60.9866 60.9933 62.223 60.6438 62.223 61.4628C62.223 61.8436 61.8735 62.1149 61.2579 62.1149C60.9481 62.1217 60.642 62.0461 60.3711 61.8958Z" fill="#263238"/>
<path d="M64.5939 61.2275H63.029C63.0609 61.3557 63.1382 61.4681 63.2466 61.5438C63.3549 61.6196 63.487 61.6536 63.6184 61.6396C63.7143 61.6438 63.81 61.6284 63.8997 61.5943C63.9894 61.5603 64.0712 61.5082 64.1401 61.4414L64.4583 61.7856C64.3495 61.8981 64.2176 61.9857 64.0717 62.0425C63.9258 62.0992 63.7694 62.1237 63.6132 62.1143C63.4657 62.1329 63.3158 62.1197 63.1738 62.0757C63.0318 62.0316 62.9008 61.9577 62.7896 61.8589C62.6785 61.7601 62.5897 61.6387 62.5293 61.5028C62.469 61.3669 62.4383 61.2197 62.4395 61.071C62.4393 60.9295 62.4679 60.7894 62.5236 60.6593C62.5792 60.5292 62.6608 60.4118 62.7633 60.3142C62.8657 60.2166 62.987 60.1409 63.1197 60.0916C63.2523 60.0424 63.3936 60.0206 63.535 60.0277C63.6741 60.0242 63.8126 60.0486 63.9422 60.0995C64.0718 60.1503 64.1899 60.2266 64.2896 60.3239C64.3893 60.4211 64.4685 60.5373 64.5225 60.6656C64.5766 60.7939 64.6044 60.9317 64.6043 61.071C64.6043 61.1127 64.5939 61.1753 64.5939 61.2275ZM63.029 60.878H64.0357C64.0057 60.7675 63.9401 60.6699 63.8492 60.6004C63.7582 60.5308 63.6469 60.4931 63.5323 60.4931C63.4178 60.4931 63.3065 60.5308 63.2155 60.6004C63.1245 60.6699 63.059 60.7675 63.029 60.878Z" fill="#263238"/>
<path d="M66.2949 60.001V60.5539H66.1593C66.0862 60.5536 66.0138 60.5686 65.9469 60.598C65.8799 60.6274 65.8199 60.6706 65.7707 60.7247C65.7215 60.7788 65.6842 60.8426 65.6613 60.9121C65.6384 60.9815 65.6303 61.055 65.6376 61.1277V62.0928H65.043V60.0427H65.6116V60.2827C65.6954 60.1854 65.801 60.1093 65.9197 60.0603C66.0384 60.0114 66.1669 59.9911 66.2949 60.001Z" fill="#263238"/>
<path d="M68.724 60.9087V62.0825H68.1293V61.0026C68.1293 60.6688 67.978 60.5175 67.712 60.5175C67.4459 60.5175 67.2216 60.6949 67.2216 61.0704V62.0825H66.627V60.0324H67.1956V60.2828C67.2836 60.193 67.3894 60.1226 67.5061 60.0759C67.6229 60.0292 67.748 60.0073 67.8737 60.0115C67.9915 60.0038 68.1095 60.0221 68.2194 60.0651C68.3292 60.1081 68.4283 60.1749 68.5095 60.2605C68.5906 60.3462 68.6519 60.4487 68.689 60.5607C68.7261 60.6727 68.738 60.7916 68.724 60.9087Z" fill="#263238"/>
<path d="M71.0779 60.9141V62.0826H70.5198V61.8479C70.4509 61.9476 70.3564 62.0269 70.2463 62.0775C70.1361 62.128 70.0143 62.1478 69.8938 62.1348C69.4139 62.1348 69.127 61.8687 69.127 61.514C69.127 61.1593 69.3826 60.8984 70.0085 60.8984H70.4676C70.4676 60.6481 70.3163 60.4968 69.9929 60.4968C69.7808 60.496 69.574 60.5637 69.4034 60.6898L69.1895 60.2725C69.4533 60.1019 69.7623 60.0146 70.0764 60.0221C70.7128 60.0012 71.0779 60.2829 71.0779 60.9141ZM70.4833 61.4358V61.2271H70.0764C69.7947 61.2271 69.7112 61.3314 69.7112 61.4671C69.7112 61.6027 69.8364 61.7174 70.0451 61.7174C70.136 61.7202 70.2256 61.6945 70.3013 61.644C70.377 61.5936 70.4351 61.5208 70.4676 61.4358H70.4833Z" fill="#263238"/>
<path d="M75.077 60.9085V62.0822H74.4824V61.0024C74.4824 60.6686 74.3363 60.5173 74.0963 60.5173C73.8564 60.5173 73.6425 60.6894 73.6425 61.0389V62.0822H73.0739V61.0024C73.0739 60.6686 72.9331 60.5173 72.6827 60.5173C72.4323 60.5173 72.234 60.6894 72.234 61.0389V62.0822H71.6133V60.0321H72.1819V60.2825C72.2625 60.1932 72.3618 60.1226 72.4726 60.0758C72.5835 60.0289 72.7032 60.0069 72.8235 60.0113C72.9561 60.0052 73.088 60.0332 73.2067 60.0925C73.3254 60.1519 73.427 60.2406 73.5017 60.3503C73.5902 60.24 73.7032 60.1519 73.8318 60.093C73.9605 60.0342 74.101 60.0062 74.2424 60.0113C74.3594 60.0041 74.4765 60.0229 74.5853 60.0663C74.6941 60.1098 74.792 60.1768 74.8718 60.2626C74.9516 60.3484 75.0114 60.4509 75.0469 60.5625C75.0824 60.6742 75.0927 60.7924 75.077 60.9085Z" fill="#263238"/>
<path d="M77.6362 61.2275H76.0713C76.0979 61.3577 76.1731 61.4728 76.2817 61.5494C76.3903 61.6259 76.524 61.6582 76.6555 61.6396C76.7513 61.6435 76.847 61.628 76.9367 61.5939C77.0263 61.5598 77.1081 61.5079 77.1772 61.4414L77.4902 61.7856C77.3818 61.8987 77.25 61.9867 77.104 62.0435C76.958 62.1002 76.8014 62.1244 76.6451 62.1143C76.4979 62.1321 76.3487 62.1183 76.2073 62.0739C76.0659 62.0295 75.9356 61.9555 75.825 61.8568C75.7144 61.758 75.6262 61.6369 75.5661 61.5014C75.506 61.3659 75.4755 61.2192 75.4766 61.071C75.4764 60.9295 75.505 60.7894 75.5607 60.6593C75.6164 60.5292 75.6979 60.4118 75.8004 60.3142C75.9029 60.2166 76.0241 60.1409 76.1568 60.0916C76.2894 60.0424 76.4307 60.0206 76.5721 60.0277C76.8488 60.0277 77.1141 60.1376 77.3098 60.3332C77.5055 60.5289 77.6154 60.7943 77.6154 61.071C77.6467 61.1127 77.6414 61.1753 77.6362 61.2275ZM76.0713 60.878H77.0833C77.0664 60.7544 77.003 60.6419 76.9061 60.5634C76.8092 60.4849 76.686 60.4463 76.5616 60.4554C76.4428 60.4533 76.3274 60.4953 76.2378 60.5734C76.1481 60.6514 76.0907 60.76 76.0765 60.878H76.0713Z" fill="#263238"/>
<path d="M81.5698 61.0394C81.5698 61.7227 81.2568 62.114 80.7873 62.114C80.6761 62.1214 80.5654 62.0929 80.4716 62.0328C80.3777 61.9728 80.3055 61.8842 80.2656 61.7801C80.1964 61.8886 80.0995 61.9768 79.9849 62.0355C79.8703 62.0941 79.7421 62.1212 79.6136 62.114C79.3749 62.0891 79.1539 61.9767 78.9933 61.7985C78.8327 61.6203 78.7438 61.3889 78.7438 61.1489C78.7438 60.909 78.8327 60.6776 78.9933 60.4993C79.1539 60.3211 79.3749 60.2087 79.6136 60.1839C79.724 60.1787 79.8342 60.1991 79.9355 60.2434C80.0369 60.2878 80.1266 60.3549 80.1978 60.4395V60.2152H80.7195V61.4463C80.7195 61.6288 80.7977 61.6914 80.9021 61.6914C81.0064 61.6914 81.1837 61.488 81.1837 61.0498C81.186 60.8678 81.1499 60.6873 81.0779 60.5201C81.0059 60.3529 80.8996 60.2027 80.7658 60.0792C80.632 59.9558 80.4738 59.8618 80.3013 59.8035C80.1289 59.7451 79.9461 59.7236 79.7649 59.7405C79.3982 59.7405 79.0466 59.8861 78.7874 60.1453C78.5281 60.4046 78.3825 60.7562 78.3825 61.1228C78.3825 61.4895 78.5281 61.8411 78.7874 62.1003C79.0466 62.3596 79.3982 62.5052 79.7649 62.5052C80.0244 62.5049 80.2808 62.4479 80.516 62.3383L80.636 62.6878C80.3628 62.8127 80.0652 62.8751 79.7649 62.8704C79.5277 62.8834 79.2904 62.8478 79.0674 62.766C78.8444 62.6842 78.6404 62.5577 78.4679 62.3944C78.2954 62.2311 78.1581 62.0344 78.0642 61.8162C77.9703 61.598 77.9219 61.363 77.9219 61.1254C77.9219 60.8879 77.9703 60.6529 78.0642 60.4347C78.1581 60.2165 78.2954 60.0198 78.4679 59.8565C78.6404 59.6932 78.8444 59.5667 79.0674 59.4849C79.2904 59.4031 79.5277 59.3675 79.7649 59.3805C79.9943 59.3618 80.2252 59.3908 80.4429 59.4656C80.6607 59.5404 80.8606 59.6594 81.0301 59.8152C81.1996 59.971 81.335 60.1602 81.4279 60.3709C81.5208 60.5815 81.5691 60.8091 81.5698 61.0394ZM80.2083 61.1489C80.2158 61.0821 80.2088 61.0145 80.1879 60.9507C80.167 60.8868 80.1327 60.8281 80.0872 60.7787C80.0417 60.7292 79.9861 60.6901 79.9242 60.664C79.8623 60.6379 79.7955 60.6254 79.7283 60.6273C79.59 60.6273 79.4573 60.6822 79.3595 60.7801C79.2616 60.8779 79.2067 61.0106 79.2067 61.1489C79.2067 61.2873 79.2616 61.42 79.3595 61.5178C79.4573 61.6156 79.59 61.6706 79.7283 61.6706C79.7955 61.6725 79.8623 61.66 79.9242 61.6338C79.9861 61.6077 80.0417 61.5686 80.0872 61.5191C80.1327 61.4697 80.167 61.411 80.1879 61.3472C80.2088 61.2833 80.2158 61.2157 80.2083 61.1489Z" fill="#263238"/>
<path d="M85.454 60.9089V62.0826H84.8593V61.0028C84.8593 60.6689 84.7133 60.5176 84.4733 60.5176C84.2333 60.5176 84.0195 60.6898 84.0195 61.0393V62.0826H83.4248V61.0028C83.4248 60.6689 83.2839 60.5176 83.0335 60.5176C82.7831 60.5176 82.5849 60.6898 82.5849 61.0393V62.0826H81.9902V60.0325H82.5588V60.2829C82.6395 60.1936 82.7387 60.123 82.8496 60.0761C82.9604 60.0293 83.0802 60.0072 83.2005 60.0116C83.3331 60.0055 83.465 60.0335 83.5837 60.0929C83.7024 60.1522 83.8039 60.241 83.8786 60.3507C83.9663 60.2408 84.0785 60.1529 84.2062 60.094C84.3339 60.0351 84.4736 60.0069 84.6141 60.0116C84.7315 60.0036 84.8492 60.0218 84.9587 60.0649C85.0682 60.108 85.1667 60.1749 85.2471 60.2608C85.3275 60.3467 85.3878 60.4494 85.4236 60.5615C85.4594 60.6736 85.4698 60.7923 85.454 60.9089Z" fill="#263238"/>
<path d="M87.8012 60.9141V62.0826H87.2483V61.8479C87.1795 61.9476 87.085 62.0269 86.9748 62.0775C86.8646 62.128 86.7428 62.1478 86.6223 62.1348C86.1424 62.1348 85.8555 61.8687 85.8555 61.514C85.8555 61.1593 86.1111 60.8984 86.7371 60.8984H87.2065C87.2065 60.6481 87.0553 60.4968 86.7371 60.4968C86.5246 60.4941 86.3173 60.562 86.1476 60.6898L85.9337 60.2725C86.196 60.1029 86.503 60.0157 86.8153 60.0221C87.4413 60.0012 87.8012 60.2829 87.8012 60.9141ZM87.2065 61.4358V61.2271H86.7997C86.5232 61.2271 86.4345 61.3314 86.4345 61.4671C86.4345 61.6027 86.5597 61.7174 86.7684 61.7174C86.8619 61.7236 86.955 61.6995 87.0339 61.6488C87.1127 61.5981 87.1733 61.5234 87.2065 61.4358Z" fill="#263238"/>
<path d="M88.2695 59.4173C88.2701 59.3705 88.2803 59.3243 88.2996 59.2816C88.3188 59.2389 88.3468 59.2006 88.3816 59.1693C88.4164 59.1379 88.4573 59.1141 88.5018 59.0993C88.5462 59.0845 88.5932 59.0792 88.6399 59.0835C88.7039 59.0905 88.7645 59.1159 88.8144 59.1566C88.8643 59.1973 88.9014 59.2516 88.9211 59.3129C88.9409 59.3741 88.9425 59.4398 88.9258 59.502C88.9091 59.5642 88.8747 59.6202 88.8269 59.6633C88.7791 59.7064 88.7198 59.7348 88.6562 59.745C88.5927 59.7552 88.5275 59.7468 88.4686 59.7208C88.4097 59.6948 88.3595 59.6523 88.3242 59.5985C88.2889 59.5446 88.2699 59.4817 88.2695 59.4173ZM88.3426 60.0329H88.932V62.083H88.3426V60.0329Z" fill="#263238"/>
<path d="M89.4902 59.2397H90.0849V62.0671H89.4902V59.2397Z" fill="#263238"/>
<path d="M90.4941 61.7434C90.4941 61.6452 90.5332 61.551 90.6026 61.4815C90.6721 61.4121 90.7663 61.373 90.8645 61.373C90.9627 61.373 91.0569 61.4121 91.1264 61.4815C91.1959 61.551 91.2349 61.6452 91.2349 61.7434C91.2349 61.8417 91.1959 61.9359 91.1264 62.0053C91.0569 62.0748 90.9627 62.1138 90.8645 62.1138C90.7663 62.1138 90.6721 62.0748 90.6026 62.0053C90.5332 61.9359 90.4941 61.8417 90.4941 61.7434Z" fill="#263238"/>
<path d="M91.4594 61.0597C91.4588 60.914 91.4887 60.7697 91.5472 60.6362C91.6057 60.5027 91.6915 60.3829 91.7992 60.2846C91.9068 60.1863 92.0339 60.1117 92.1721 60.0655C92.3104 60.0193 92.4568 60.0026 92.6019 60.0164C92.7897 60.0006 92.9779 60.0419 93.1417 60.135C93.3056 60.2281 93.4375 60.3686 93.52 60.5381L93.0609 60.7833C93.0081 60.7056 92.9362 60.6427 92.8521 60.6008C92.7679 60.559 92.6745 60.5394 92.5806 60.5441C92.4868 60.5488 92.3957 60.5775 92.3162 60.6276C92.2366 60.6776 92.1713 60.7473 92.1265 60.8299C92.0817 60.9125 92.0589 61.0052 92.0602 61.0992C92.0616 61.1931 92.0871 61.2852 92.1344 61.3664C92.1816 61.4476 92.2489 61.5154 92.3299 61.5631C92.4108 61.6108 92.5027 61.6368 92.5967 61.6388C92.6924 61.639 92.7864 61.6128 92.8683 61.5631C92.9502 61.5134 93.0169 61.4421 93.0609 61.3571L93.52 61.6075C93.4363 61.776 93.3042 61.9157 93.1407 62.0086C92.9771 62.1016 92.7895 62.1435 92.6019 62.1291C92.4545 62.1433 92.3059 62.1259 92.1658 62.0781C92.0257 62.0304 91.8974 61.9534 91.7893 61.8523C91.6813 61.7511 91.596 61.6281 91.5391 61.4915C91.4822 61.3549 91.4551 61.2077 91.4594 61.0597Z" fill="#263238"/>
<path d="M93.6847 61.0603C93.668 60.8347 93.7195 60.6092 93.8327 60.4133C93.9459 60.2173 94.1155 60.06 94.3193 59.9618C94.5232 59.8636 94.7519 59.829 94.9757 59.8626C95.1994 59.8962 95.4079 59.9964 95.5739 60.1501C95.74 60.3038 95.8559 60.504 95.9066 60.7245C95.9572 60.9451 95.9403 61.1757 95.8581 61.3865C95.7758 61.5973 95.632 61.7785 95.4453 61.9064C95.2586 62.0343 95.0378 62.103 94.8115 62.1036C94.6676 62.1152 94.5229 62.0968 94.3866 62.0495C94.2502 62.0023 94.1251 61.9273 94.0192 61.8292C93.9133 61.7311 93.8289 61.6122 93.7713 61.4798C93.7138 61.3475 93.6843 61.2047 93.6847 61.0603ZM95.3332 61.0603C95.3241 60.9597 95.2859 60.8638 95.2233 60.7844C95.1608 60.705 95.0765 60.6455 94.9807 60.6131C94.885 60.5807 94.7819 60.5769 94.684 60.602C94.5861 60.6271 94.4976 60.6801 94.4292 60.7546C94.3609 60.8291 94.3157 60.9218 94.2991 61.0215C94.2824 61.1213 94.2952 61.2236 94.3357 61.3163C94.3762 61.4089 94.4427 61.4877 94.5272 61.5432C94.6116 61.5987 94.7104 61.6285 94.8115 61.6289C94.8841 61.6292 94.956 61.6143 95.0226 61.5852C95.0892 61.5561 95.1489 61.5135 95.198 61.4599C95.2471 61.4064 95.2845 61.3432 95.3078 61.2744C95.331 61.2056 95.3397 61.1327 95.3332 61.0603Z" fill="#263238"/>
<path d="M99.8017 60.9089V62.0826H99.207V61.0028C99.207 60.6689 99.0557 60.5176 98.8157 60.5176C98.5758 60.5176 98.3619 60.6898 98.3619 61.0393V62.0826H97.7672V61.0028C97.7672 60.6689 97.6264 60.5176 97.3812 60.5176C97.136 60.5176 96.9326 60.6898 96.9326 61.0393V62.0826H96.3379V60.0325H96.9013V60.2829C96.983 60.1934 97.0831 60.1228 97.1948 60.076C97.3065 60.0292 97.4271 60.0072 97.5481 60.0116C97.6801 60.0049 97.8115 60.0327 97.9295 60.0921C98.0474 60.1515 98.1479 60.2407 98.2211 60.3507C98.3101 60.241 98.4233 60.1533 98.5518 60.0945C98.6802 60.0357 98.8206 60.0073 98.9618 60.0116C99.0792 60.0036 99.1969 60.0218 99.3064 60.0649C99.4158 60.108 99.5144 60.1749 99.5948 60.2608C99.6752 60.3467 99.7355 60.4494 99.7712 60.5615C99.807 60.6736 99.8174 60.7923 99.8017 60.9089Z" fill="#263238"/>
<path d="M65.5484 75.1967L66.5135 75.7184L66.0805 76.4435L65.105 75.8697V76.9443H64.2704V75.8592L63.3262 76.4539L62.8984 75.7288L63.8687 75.2072L62.8984 74.6855L63.3262 73.9604L64.3017 74.5447V73.4648H65.1363V74.5447L66.1118 73.9604L66.5448 74.6855L65.5484 75.1967Z" fill="#263238"/>
<path d="M69.5706 75.1967L70.5356 75.7184L70.1027 76.4539L69.1272 75.8801V76.9547H68.2978V75.8697L67.3379 76.4539L66.9102 75.7288L67.8752 75.2072L66.9102 74.6855L67.3379 73.9604L68.3134 74.5447V73.4648H69.1428V74.5447L70.1183 73.9604L70.5513 74.6855L69.5706 75.1967Z" fill="#263238"/>
<path d="M73.5986 75.1967L74.5636 75.7184L74.1202 76.4539L73.15 75.8801V76.9547H72.3153V75.8697L71.3659 76.4539L70.9434 75.7288L71.9084 75.2072L70.9434 74.6855L71.3659 73.9604L72.3414 74.5447V73.4648H73.176V74.5447L74.1463 73.9604L74.5845 74.6855L73.5986 75.1967Z" fill="#263238"/>
<path d="M77.607 75.1967L78.5721 75.7184L78.1391 76.4435L77.1636 75.8697V76.9443H76.329V75.8592L75.3848 76.4539L74.957 75.7288L75.9273 75.2072L74.957 74.6855L75.3848 73.9604L76.3603 74.5447V73.4648H77.1949V74.5447L78.1704 73.9604L78.6034 74.6855L77.607 75.1967Z" fill="#263238"/>
<path d="M81.6305 75.1971L82.5955 75.7187L82.1626 76.4438L81.187 75.87V76.9446H80.3785V75.8596L79.4082 76.4543L78.9805 75.7292L79.9455 75.2075L78.9805 74.6859L79.4082 73.9608L80.3785 74.5242V73.4443H81.2079V74.5242L82.1834 73.9399L82.6164 74.665L81.6305 75.1971Z" fill="#263238"/>
<path d="M85.6519 75.1967L86.617 75.7184L86.184 76.4435L85.2085 75.8697V76.9443H84.3739V75.8592L83.4245 76.4539L83.002 75.7288L83.967 75.2072L83.002 74.6855L83.4245 73.9604L84.4 74.5447V73.4648H85.2346V74.5447L86.2101 73.9604L86.6431 74.6855L85.6519 75.1967Z" fill="#263238"/>
<path d="M89.6695 75.1967L90.6346 75.7184L90.2016 76.4435L89.2261 75.8697V76.9443H88.3915V75.8592L87.4473 76.4539L87.0195 75.7288L87.9898 75.2072L87.0195 74.6855L87.4473 73.9604L88.4228 74.5447V73.4648H89.247V74.5447L90.2225 73.9604L90.6555 74.6855L89.6695 75.1967Z" fill="#263238"/>
<path d="M93.691 75.1967L94.6561 75.7184L94.2231 76.4435L93.2476 75.8697V76.9443H92.4182V75.8592L91.4688 76.4539L91.041 75.7288L92.0061 75.2072L91.041 74.6855L91.4688 73.9604L92.4443 74.5447V73.4648H93.2737V74.5447L94.2492 73.9604L94.6822 74.6855L93.691 75.1967Z" fill="#263238"/>
<path d="M251.176 138.522C251.176 138.522 240.946 126.748 237.086 114.973C233.226 103.198 235.057 104.55 235.057 104.55C235.057 104.55 240.269 115.987 244.226 121.513C248.183 127.038 255.23 135.142 255.23 135.142L251.176 138.522Z" fill="#455A64"/>
<path d="M253.212 106.381C253.143 106.259 253.034 106.166 252.903 106.117C252.773 106.068 252.629 106.066 252.497 106.113C252.365 106.159 252.254 106.249 252.182 106.369C252.111 106.489 252.083 106.63 252.105 106.768C252.728 110.907 254.076 120.61 254.041 126.902C253.975 135.08 254.041 138.239 254.041 138.239H258.3C258.3 138.239 257.526 121.334 256.581 116.169C255.892 112.564 254.459 108.553 253.212 106.381Z" fill="#455A64"/>
<path d="M255.537 136.86C257.322 132.818 258.502 128.535 259.041 124.149C259.39 121.14 258.766 117.071 257.837 111.642C257.476 109.657 257.296 107.643 257.299 105.625C257.301 105.4 257.378 105.183 257.517 105.007C257.656 104.83 257.849 104.705 258.067 104.65C258.285 104.596 258.515 104.615 258.721 104.706C258.926 104.796 259.096 104.952 259.204 105.149C259.719 106.066 261.206 109.199 261.585 111.162C262.615 116.521 263.781 119.2 262.89 124.288C261.999 129.376 258.697 137.205 258.697 137.205L255.537 136.86Z" fill="#455A64"/>
<path d="M259.371 137.205C259.371 137.205 270.6 113.067 271.374 109.485C272.149 105.904 274.801 97.6527 275.111 98.1212C275.421 98.5897 275.885 102.946 273.868 107.929C271.851 112.912 263.2 137.941 263.2 137.941H259.371" fill="#455A64"/>
<path d="M254.304 136.125C254.193 136.063 254.088 135.99 253.99 135.908C253.789 135.757 253.487 135.544 253.119 135.246C252.372 134.657 251.322 133.763 250.099 132.582C246.943 129.468 244.209 125.953 241.968 122.128C239.728 118.3 237.864 114.265 236.404 110.078C235.838 108.475 235.428 107.162 235.161 106.252C235.021 105.795 234.928 105.439 234.862 105.199C234.822 105.073 234.792 104.943 234.773 104.812C234.829 104.927 234.874 105.046 234.909 105.168C234.994 105.428 235.106 105.776 235.25 106.21C235.544 107.112 235.981 108.413 236.562 110.008C238.067 114.164 239.945 118.175 242.173 121.992C244.414 125.799 247.122 129.311 250.234 132.446C251.438 133.643 252.465 134.553 253.193 135.157C253.553 135.467 253.847 135.691 254.033 135.854C254.13 135.937 254.221 136.027 254.304 136.125Z" fill="#263238"/>
<path d="M255.537 124.544C255.479 124.312 255.445 124.074 255.436 123.835C255.382 123.336 255.312 122.673 255.227 121.899C255.049 120.265 254.77 118.027 254.375 115.537C253.98 113.048 253.535 110.837 253.191 109.234C253.024 108.459 252.889 107.82 252.78 107.329C252.718 107.098 252.676 106.862 252.656 106.624C252.748 106.845 252.821 107.073 252.873 107.305C252.997 107.751 253.163 108.394 253.357 109.195C253.744 110.794 254.213 113.021 254.612 115.503C255.01 117.984 255.262 120.242 255.386 121.884C255.452 122.701 255.498 123.367 255.518 123.82C255.544 124.06 255.551 124.302 255.537 124.544Z" fill="#263238"/>
<path d="M258.164 104.96C258.219 105.057 258.263 105.159 258.295 105.266L258.632 106.164C258.783 106.551 258.954 107.031 259.116 107.601C259.279 108.17 259.504 108.805 259.662 109.537L259.941 110.671C260.034 111.058 260.1 111.484 260.185 111.914C260.371 112.77 260.483 113.699 260.619 114.675C260.861 116.798 260.951 118.935 260.89 121.071C260.799 123.208 260.555 125.335 260.162 127.437C259.957 128.397 259.775 129.319 259.534 130.147C259.414 130.569 259.318 130.984 259.198 131.371L258.838 132.501C258.625 133.214 258.361 133.837 258.156 134.391C257.951 134.945 257.769 135.413 257.571 135.789L257.184 136.66C257.143 136.763 257.091 136.862 257.029 136.954C257.055 136.847 257.092 136.742 257.138 136.641C257.231 136.416 257.351 136.122 257.498 135.754C257.645 135.386 257.85 134.902 258.04 134.341C258.23 133.779 258.485 133.179 258.69 132.447C258.799 132.095 258.911 131.723 259.031 131.336C259.151 130.949 259.24 130.538 259.352 130.116C259.585 129.276 259.74 128.362 259.957 127.406C260.334 125.314 260.569 123.199 260.661 121.075C260.722 118.951 260.639 116.826 260.413 114.714C260.282 113.742 260.177 112.816 260.003 111.961C259.922 111.535 259.86 111.116 259.771 110.721C259.682 110.327 259.593 109.947 259.507 109.587C259.356 108.863 259.151 108.224 259 107.651C258.849 107.078 258.69 106.598 258.555 106.203L258.264 105.293C258.22 105.186 258.186 105.074 258.164 104.96Z" fill="#263238"/>
<path d="M274.989 98.605C274.994 98.641 274.994 98.6774 274.989 98.7134C274.989 98.7986 274.958 98.8993 274.939 99.027C274.889 99.3019 274.827 99.7085 274.718 100.227C274.502 101.265 274.138 102.76 273.557 104.572C272.976 106.384 272.233 108.513 271.323 110.848C270.413 113.183 269.363 115.731 268.364 118.441C267.365 121.152 266.572 123.788 265.84 126.185C265.108 128.582 264.423 130.735 263.757 132.512C263.247 133.921 262.659 135.3 261.995 136.643C261.767 137.12 261.557 137.476 261.426 137.724L261.267 137.999C261.232 138.061 261.213 138.092 261.209 138.088C261.216 138.052 261.229 138.018 261.248 137.987L261.383 137.7C261.503 137.449 261.697 137.085 261.914 136.601C262.363 135.644 262.975 134.239 263.61 132.454C264.245 130.669 264.926 128.524 265.639 126.123C266.351 123.723 267.137 121.09 268.151 118.379C269.166 115.669 270.211 113.117 271.129 110.786C272.047 108.455 272.829 106.345 273.41 104.541C273.99 102.736 274.374 101.257 274.618 100.227C274.742 99.7124 274.819 99.3097 274.885 99.0348C274.912 98.9109 274.939 98.8102 274.958 98.7289C274.961 98.686 274.972 98.644 274.989 98.605Z" fill="#263238"/>
<path d="M240.354 93.2736C240.2 93.1235 240 93.0293 239.786 93.0058C239.572 92.9823 239.357 93.0309 239.174 93.144C238.991 93.257 238.851 93.428 238.777 93.6297C238.702 93.8314 238.697 94.0522 238.762 94.2571C239.146 95.4995 239.617 96.7132 240.172 97.889C241.721 101.169 246.251 112.943 248.377 119.41C250.502 125.876 253.476 137.941 253.476 137.941L258.01 137.205C258.01 137.205 253.863 117.4 249.825 110.241C246.568 104.502 243.308 96.2086 240.354 93.2736Z" fill="#455A64"/>
<path d="M249.604 123.456C249.703 123.627 249.782 123.809 249.84 123.998C249.971 124.354 250.157 124.873 250.362 125.52C250.781 126.813 251.292 128.617 251.803 130.627C252.314 132.637 252.748 134.464 253.046 135.788C253.181 136.412 253.294 136.95 253.386 137.357C253.437 137.548 253.468 137.744 253.479 137.941C253.398 137.761 253.336 137.573 253.294 137.38C253.185 136.965 253.046 136.447 252.879 135.831C252.531 134.468 252.078 132.675 251.57 130.693C251.063 128.71 250.575 126.875 250.2 125.574C250.022 124.958 249.871 124.443 249.751 124.025C249.683 123.841 249.634 123.65 249.604 123.456Z" fill="#263238"/>
<path d="M255.77 137.573C255.757 137.534 255.749 137.494 255.747 137.453C255.747 137.356 255.716 137.24 255.692 137.096C255.646 136.783 255.603 136.322 255.506 135.722C255.34 134.529 255.046 132.814 254.558 130.719C253.977 128.27 253.269 125.854 252.436 123.479C251.503 120.792 250.337 117.888 249.017 114.883C246.349 108.885 243.685 103.561 241.931 99.6272C241.048 97.6602 240.382 96.0611 239.91 94.9421C239.682 94.3845 239.523 93.947 239.403 93.6527C239.349 93.5172 239.31 93.4049 239.275 93.3158C239.258 93.2777 239.246 93.2373 239.24 93.1958C239.264 93.2295 239.283 93.2659 239.298 93.3042L239.445 93.6333C239.581 93.9431 239.763 94.369 239.999 94.9072C240.475 96.0107 241.184 97.6176 242.086 99.5536C243.875 103.46 246.566 108.777 249.238 114.786C250.558 117.795 251.724 120.706 252.645 123.405C253.472 125.791 254.166 128.222 254.724 130.684C255.101 132.346 255.393 134.026 255.599 135.718C255.681 136.314 255.708 136.783 255.743 137.096L255.77 137.457C255.774 137.495 255.774 137.534 255.77 137.573Z" fill="#263238"/>
<path d="M258.026 137.206C257.954 136.952 257.903 136.693 257.872 136.432C257.782 135.901 257.662 135.196 257.519 134.348C257.209 132.591 256.745 130.171 256.044 127.538C255.343 124.905 254.6 122.57 254.011 120.886C253.725 120.072 253.485 119.403 253.303 118.895C253.203 118.656 253.122 118.408 253.062 118.156C253.192 118.381 253.302 118.617 253.392 118.86C253.585 119.321 253.86 119.991 254.166 120.827C254.986 123.01 255.689 125.234 256.272 127.491C256.859 129.746 257.33 132.03 257.686 134.333C257.813 135.216 257.91 135.932 257.961 136.432C258.002 136.688 258.024 136.947 258.026 137.206Z" fill="#263238"/>
<path d="M267.334 136.555H249.635V158.118H267.334V136.555Z" fill="#4392F1"/>
<g opacity="0.3">
<path d="M267.334 136.554H249.635V158.117H267.334V136.554Z" fill="black"/>
</g>
<path d="M261.685 136.555H245.984V158.118H261.685V136.555Z" fill="#4392F1"/>
<path d="M201.501 83.6055L191.531 82.1616L171.587 85.1115L165.99 87.0906L166.982 99.3301L186.158 102.861L199.095 99.0272L203.987 91.8287L201.501 83.6055Z" fill="#FFBE9D"/>
<path d="M207.787 84.7752L199.44 82.8086C199.44 82.8086 193.544 101.064 178.985 100.263C167.119 99.6202 166.982 86.3767 166.982 86.3767L158.431 89.115C158.431 89.115 155.158 111.051 158.78 126.593C159.609 130.223 160.759 135.115 160.759 135.115L159.601 157.822L222.848 157.922L207.787 84.7752Z" fill="#4392F1"/>
<g opacity="0.3">
<path d="M182.994 153.416C186.073 153.337 188.911 153.598 191.989 153.524C195.682 153.433 199.403 153.341 203.05 153.939C205.78 154.391 208.444 155.221 211.174 155.652C214.908 156.241 218.887 156.034 222.206 154.237L221.671 151.138L209.066 148.093L182.994 153.416Z" fill="black"/>
</g>
<path d="M151.291 94.2265C154.196 90.4924 158.992 88.9365 158.992 88.9365L162.228 117.104L156.1 158.121L136.027 158.025C136.027 158.025 147.097 99.6409 151.291 94.2265Z" fill="#4392F1"/>
<path d="M206.813 84.5684C206.813 84.5684 220.322 85.6512 225.168 107.803C227.359 117.814 230.147 129.543 230.931 137.43C231.508 143.148 228.4 152.101 222.7 152.836L215.53 153.798C214.125 154.001 212.694 153.949 211.307 153.645C206.78 152.603 206.328 149.496 205.498 146.176L203.424 139.571C202.279 133.29 208.133 132.103 211.365 132.19L208.954 103.517L206.813 84.5684Z" fill="#4392F1"/>
<path d="M157.319 104.599C157.287 104.698 157.266 104.801 157.257 104.906C157.224 105.13 157.178 105.428 157.12 105.798C157.095 105.993 157.062 106.213 157.029 106.445C156.995 106.677 156.979 106.939 156.95 107.217C156.892 107.768 156.825 108.399 156.796 109.1C156.7 110.74 156.689 112.384 156.763 114.025C156.862 116.032 157.061 118.033 157.36 120.02C157.672 122.14 158.062 124.14 158.46 125.949C158.858 127.758 159.244 129.38 159.584 130.741C159.925 132.102 160.211 133.193 160.414 133.948C160.514 134.309 160.593 134.6 160.655 134.816C160.677 134.918 160.711 135.019 160.754 135.114C160.745 135.01 160.726 134.907 160.696 134.807C160.646 134.583 160.58 134.293 160.497 133.928C160.31 133.144 160.049 132.048 159.725 130.704C159.402 129.36 159.028 127.717 158.651 125.908C158.273 124.099 157.879 122.103 157.572 119.991C157.265 117.879 157.049 115.842 156.958 114.013C156.867 112.183 156.863 110.503 156.958 109.109C156.979 108.407 157.033 107.781 157.078 107.225C157.098 106.948 157.118 106.691 157.141 106.453C157.165 106.221 157.19 106.005 157.211 105.806C157.253 105.437 157.286 105.138 157.307 104.91C157.321 104.807 157.325 104.703 157.319 104.599Z" fill="#263238"/>
<path d="M221.965 139.948C221.956 139.756 221.924 139.565 221.87 139.38C221.738 138.88 221.563 138.393 221.347 137.923C220.638 136.357 219.535 135.002 218.145 133.991C216.755 132.979 215.127 132.345 213.418 132.152C212.905 132.09 212.387 132.073 211.871 132.102C211.681 132.105 211.491 132.128 211.307 132.173C212 132.177 212.693 132.22 213.381 132.302C215.05 132.533 216.637 133.173 218 134.165C219.362 135.156 220.459 136.469 221.194 137.986C221.485 138.626 221.743 139.281 221.965 139.948Z" fill="#263238"/>
<path d="M218.846 128.92C218.739 128.893 218.628 128.883 218.518 128.891C218.22 128.886 217.922 128.9 217.626 128.933C216.647 129.032 215.687 129.273 214.776 129.646C213.866 130.024 213.014 130.528 212.245 131.144C212.013 131.33 211.793 131.529 211.585 131.742C211.44 131.895 211.365 131.982 211.374 131.995C211.382 132.007 211.739 131.704 212.34 131.264C213.905 130.115 215.727 129.366 217.647 129.082C218.381 128.974 218.846 128.958 218.846 128.92Z" fill="#263238"/>
<path d="M204.861 100.263C204.891 100.067 204.902 99.8685 204.894 99.6701C204.894 99.2884 204.919 98.7408 204.965 98.0645C205.207 94.5275 206.176 91.0783 207.811 87.9327C208.122 87.3311 208.392 86.8498 208.587 86.5262C208.696 86.3613 208.789 86.1862 208.865 86.0034C208.732 86.1509 208.614 86.3107 208.512 86.4805C208.296 86.7959 208.006 87.2647 207.682 87.8622C205.96 90.9976 204.98 94.4866 204.819 98.0603C204.795 98.7408 204.795 99.305 204.819 99.6743C204.813 99.8716 204.827 100.069 204.861 100.263Z" fill="#263238"/>
<path d="M178.986 120.357C178.995 120.436 179.015 120.514 179.044 120.589C179.094 120.738 179.156 120.967 179.268 121.24C179.571 122.033 179.947 122.796 180.393 123.518C181.865 125.927 184.002 127.858 186.547 129.08C189.092 130.302 191.936 130.762 194.736 130.405C195.58 130.3 196.414 130.118 197.225 129.862C197.511 129.775 197.727 129.679 197.872 129.625C197.949 129.601 198.022 129.569 198.092 129.53C198.092 129.509 197.773 129.617 197.2 129.779C196.386 130.007 195.553 130.166 194.711 130.252C191.943 130.578 189.139 130.11 186.626 128.904C184.113 127.698 181.995 125.803 180.517 123.439C180.066 122.729 179.672 121.984 179.339 121.211C179.136 120.664 179.003 120.348 178.986 120.357Z" fill="#263238"/>
<path d="M207.457 151.495C207.478 151.474 207.689 151.777 208.196 152.192C208.936 152.751 209.783 153.152 210.685 153.371C212.013 153.703 213.385 153.825 214.751 153.732C216.294 153.619 218 153.437 219.767 153.176C221.432 152.96 223.072 152.582 224.663 152.047C225.327 151.755 225.935 151.349 226.459 150.848C226.922 150.414 227.339 149.935 227.704 149.417C228.245 148.668 228.708 147.866 229.086 147.023C229.214 146.72 229.314 146.487 229.376 146.326C229.401 146.241 229.437 146.16 229.484 146.085C229.468 146.171 229.446 146.256 229.418 146.338C229.368 146.508 229.281 146.753 229.16 147.056C228.812 147.922 228.365 148.745 227.828 149.508C227.466 150.039 227.049 150.532 226.584 150.977C226.049 151.498 225.425 151.919 224.742 152.221C223.141 152.778 221.486 153.166 219.804 153.379C218.024 153.644 216.323 153.819 214.768 153.922C213.381 154.004 211.99 153.864 210.648 153.507C209.739 153.273 208.891 152.849 208.158 152.263C207.965 152.096 207.789 151.911 207.631 151.711C207.564 151.647 207.506 151.574 207.457 151.495Z" fill="#263238"/>
<path d="M205.228 107.316C205.282 107.316 206.71 112.83 208.406 119.668C210.103 126.505 211.435 132.057 211.377 132.073C211.319 132.09 209.896 126.555 208.199 119.718C206.502 112.88 205.17 107.329 205.228 107.316Z" fill="#263238"/>
<path d="M203.506 138.55C203.461 138.402 203.438 138.248 203.435 138.094C203.394 137.68 203.384 137.264 203.406 136.849C203.454 136.216 203.664 135.606 204.016 135.078C204.216 134.763 204.448 134.471 204.709 134.206C204.998 133.93 205.32 133.69 205.667 133.493C206.896 132.848 208.227 132.418 209.601 132.223C210.013 132.164 210.429 132.128 210.845 132.115C210.998 132.092 211.153 132.092 211.306 132.115C211.306 132.148 210.654 132.173 209.621 132.36C208.278 132.591 206.979 133.031 205.771 133.663C205.438 133.852 205.129 134.08 204.85 134.343C204.598 134.596 204.373 134.874 204.178 135.173C203.834 135.665 203.62 136.236 203.555 136.833C203.519 137.246 203.506 137.662 203.518 138.077C203.532 138.235 203.528 138.394 203.506 138.55Z" fill="#263238"/>
<g opacity="0.3">
<path d="M157.943 123.198C154.495 117.361 154.42 109.776 157.428 103.698C156.465 110.174 156.673 116.771 158.043 123.174" fill="black"/>
</g>
<path d="M163.44 149.383C164.527 147.333 173.003 141.914 173.003 141.914L170.709 141.383L168.174 142.454C167.982 143.313 167.61 144.122 167.083 144.827C166.153 146.155 164.572 144.781 164.572 144.781L165.643 139.649L170.655 136.633C170.655 136.633 175.368 137.355 176.132 137.72L178.14 139.558C179.023 140.251 181.571 142.977 182.268 143.06C182.965 143.143 204.859 138.226 204.859 138.226C207.859 140.603 209.423 145.321 209.912 148.727C209.912 148.727 210.448 150.387 209.867 151.308L183.011 153.415L177.318 154.988C175.794 155.618 174.232 156.155 172.642 156.594C170.75 157.008 169.477 156.382 169.423 155.349C169.369 154.316 170.842 154.187 170.842 154.187C172.097 153.736 173.32 153.199 174.501 152.577C175.366 152.001 176.078 151.224 176.575 150.312L174.547 150.553C174.547 150.553 170.232 153.548 168.609 154.428C166.987 155.307 166.668 153.693 166.535 153.183C166.402 152.673 171.381 147.827 171.381 147.827C171.381 147.827 166.647 150.731 165.796 151.478C164.946 152.225 163.685 152.436 163.415 151.943C163.145 151.449 162.357 151.432 163.44 149.383Z" fill="#FFBE9D"/>
<path d="M186.782 149.857C186.806 149.748 186.814 149.636 186.807 149.525C186.812 149.394 186.803 149.263 186.782 149.135C186.765 148.962 186.733 148.791 186.686 148.624C186.417 147.655 185.949 146.753 185.313 145.973C184.693 145.191 183.998 144.471 183.239 143.824C182.941 143.539 182.614 143.286 182.264 143.069C182.54 143.372 182.833 143.659 183.143 143.928C183.866 144.6 184.537 145.325 185.151 146.098C185.773 146.857 186.246 147.727 186.545 148.662C186.761 149.384 186.74 149.861 186.782 149.857Z" fill="#EB996E"/>
<path d="M173.199 141.761C173.685 141.833 174.18 141.789 174.645 141.632C175.11 141.476 175.532 141.212 175.875 140.861C175.842 140.815 175.323 141.201 174.581 141.442C173.838 141.683 173.199 141.703 173.199 141.761Z" fill="#EB996E"/>
<path d="M171.787 147.379C173.248 146.921 174.667 146.338 176.027 145.636C175.287 145.832 174.565 146.093 173.87 146.416C173.15 146.678 172.453 147 171.787 147.379Z" fill="#EB996E"/>
<path d="M176.336 150.251C176.718 150.163 177.088 150.031 177.44 149.857C177.816 149.747 178.179 149.592 178.518 149.396C177.727 149.477 176.972 149.772 176.336 150.251Z" fill="#EB996E"/>
<path d="M172.498 147.753C172.802 147.962 173.081 148.208 173.328 148.483C173.528 148.797 173.69 149.134 173.809 149.487C173.834 149.487 173.859 149.35 173.809 149.134C173.759 148.854 173.642 148.589 173.469 148.362C173.297 148.136 173.074 147.954 172.818 147.831C172.631 147.74 172.498 147.732 172.498 147.753Z" fill="#EB996E"/>
<path d="M170.496 144.62C170.467 144.67 170.84 144.873 171.085 145.301C171.209 145.575 171.311 145.86 171.388 146.151C171.448 145.992 171.467 145.821 171.443 145.652C171.419 145.484 171.353 145.325 171.251 145.189C170.973 144.707 170.504 144.566 170.496 144.62Z" fill="#EB996E"/>
<path d="M171.17 139.019C171.194 139.019 171.269 138.936 171.331 138.75C171.395 138.505 171.395 138.248 171.331 138.003C171.272 137.757 171.149 137.531 170.975 137.347C170.838 137.21 170.726 137.161 170.709 137.181C170.883 137.453 171.022 137.746 171.124 138.053C171.183 138.371 171.198 138.696 171.17 139.019Z" fill="#EB996E"/>
<path d="M210.088 152.076C210.06 151.871 210.049 151.665 210.054 151.458C210.054 151.259 210.054 151.018 210.025 150.736C209.996 150.454 210.001 150.134 209.959 149.786C209.803 147.945 209.409 146.132 208.785 144.392C208.434 143.442 208.01 142.521 207.515 141.637C207.266 141.223 207.051 140.853 206.802 140.517C206.685 140.347 206.569 140.185 206.457 140.028C206.345 139.87 206.225 139.729 206.113 139.613C205.221 138.513 204.536 137.953 204.57 137.92C204.744 138.031 204.905 138.16 205.051 138.306C205.238 138.462 205.415 138.63 205.582 138.808C205.777 139.011 205.997 139.223 206.233 139.513C206.345 139.654 206.466 139.795 206.59 139.928C206.715 140.061 206.827 140.247 206.951 140.418C207.208 140.754 207.432 141.144 207.685 141.542C208.198 142.43 208.634 143.36 208.988 144.322C209.618 146.074 209.996 147.907 210.113 149.765C210.142 150.118 210.137 150.442 210.146 150.724C210.154 151.006 210.146 151.251 210.146 151.45C210.148 151.66 210.128 151.87 210.088 152.076Z" fill="#263238"/>
<g opacity="0.3">
<path d="M219.3 132.887C216.781 131.847 214.007 131.594 211.342 132.161C213.633 132.055 215.899 132.668 217.825 133.913C219.751 135.158 221.24 136.974 222.083 139.106C222.274 139.62 222.656 140.23 223.204 140.152C223.751 140.073 223.901 139.438 223.901 138.928C223.905 136.243 221.776 133.92 219.3 132.887Z" fill="black"/>
</g>
<path d="M157.146 102.699C157.022 102.676 156.902 102.636 156.789 102.579C156.561 102.492 156.242 102.346 155.852 102.164C154.834 101.656 153.862 101.06 152.947 100.384C152.036 99.7109 151.184 98.9614 150.4 98.1435C150.101 97.8281 149.865 97.5626 149.715 97.3759C149.566 97.1892 149.483 97.0772 149.495 97.0647C149.508 97.0523 149.885 97.4382 150.508 98.0356C151.316 98.8157 152.174 99.5432 153.076 100.214C153.98 100.879 154.927 101.485 155.91 102.027C156.69 102.454 157.171 102.67 157.146 102.699Z" fill="white"/>
<path d="M205.054 104.263C205.023 104.291 204.988 104.315 204.95 104.334L204.631 104.525C204.353 104.695 203.93 104.94 203.386 105.213C201.828 106.013 200.213 106.694 198.553 107.251C196.087 108.066 193.556 108.674 190.989 109.068C187.845 109.536 184.674 109.799 181.496 109.856C178.115 109.935 174.895 109.856 171.953 109.806C169.358 109.77 166.767 109.575 164.195 109.221C162.46 108.975 160.749 108.578 159.083 108.035C158.498 107.836 158.046 107.67 157.747 107.541L157.407 107.396C157.367 107.382 157.328 107.364 157.291 107.342L157.415 107.375L157.764 107.5C158.067 107.616 158.523 107.769 159.112 107.956C160.781 108.463 162.488 108.836 164.216 109.072C166.784 109.4 169.369 109.579 171.958 109.607C174.862 109.661 178.098 109.719 181.471 109.64C184.64 109.585 187.803 109.327 190.939 108.869C193.499 108.488 196.023 107.898 198.486 107.105C200.145 106.563 201.765 105.906 203.332 105.139C203.884 104.865 204.311 104.645 204.577 104.487L204.905 104.317C205.013 104.276 205.05 104.259 205.054 104.263Z" fill="white"/>
<path d="M157.303 119.05C157.128 119.034 156.955 118.998 156.789 118.942L155.407 118.565C154.245 118.237 152.644 117.768 150.876 117.241C149.109 116.714 147.516 116.22 146.362 115.855L145.001 115.415C144.833 115.367 144.669 115.303 144.512 115.225C144.687 115.241 144.859 115.277 145.026 115.332L146.408 115.71C147.57 116.038 149.171 116.507 150.938 117.034C152.706 117.56 154.299 118.05 155.453 118.415L156.813 118.859C156.983 118.905 157.147 118.969 157.303 119.05Z" fill="white"/>
<path d="M158.511 141.982C158.511 142.036 154.362 140.849 149.258 139.326C144.155 137.804 140.052 136.522 140.068 136.463C140.085 136.405 144.217 137.592 149.321 139.119C154.424 140.646 158.527 141.924 158.511 141.982Z" fill="white"/>
<path d="M218.475 92.3677C218.336 92.5031 218.183 92.6241 218.019 92.7286C217.72 92.9485 217.272 93.2556 216.712 93.6207C213.782 95.5161 210.639 97.0604 207.348 98.2219C206.717 98.4418 206.203 98.6077 205.842 98.7115C205.659 98.778 205.47 98.8252 205.277 98.8525C205.45 98.763 205.631 98.6894 205.817 98.6326L207.298 98.0808C208.543 97.6037 210.248 96.8984 212.073 96.0063C213.899 95.1143 215.5 94.1932 216.637 93.4962L217.982 92.6664C218.136 92.5509 218.301 92.4508 218.475 92.3677Z" fill="white"/>
<path d="M226.742 115.942C226.526 116.065 226.302 116.172 226.07 116.262C225.635 116.457 224.987 116.714 224.183 117.009C219.975 118.541 215.558 119.42 211.084 119.614C210.225 119.652 209.533 119.66 209.051 119.643C208.803 119.649 208.555 119.638 208.309 119.61C208.554 119.573 208.803 119.556 209.051 119.56C209.528 119.56 210.221 119.519 211.076 119.461C213.298 119.32 215.509 119.033 217.694 118.602C219.877 118.163 222.029 117.584 224.137 116.868C224.946 116.59 225.597 116.353 226.045 116.183C226.271 116.083 226.504 116.003 226.742 115.942Z" fill="white"/>
<path d="M214.817 153.649C214.814 153.571 214.821 153.493 214.838 153.416C214.862 153.246 214.9 153.031 214.941 152.765C214.983 152.499 215.045 152.134 215.087 151.728C215.128 151.321 215.199 150.865 215.215 150.35C215.215 150.097 215.248 149.828 215.265 149.55C215.282 149.272 215.265 148.977 215.265 148.678C215.265 148.077 215.24 147.434 215.207 146.757C215.098 145.293 214.875 143.839 214.539 142.409C214.187 140.983 213.725 139.586 213.157 138.231C212.875 137.617 212.622 137.024 212.327 136.497C212.186 136.231 212.058 135.97 211.913 135.725L211.498 135.036C211.245 134.588 210.971 134.207 210.751 133.871C210.531 133.534 210.336 133.244 210.149 133.016L209.759 132.481C209.709 132.422 209.667 132.356 209.635 132.286C209.692 132.336 209.745 132.392 209.792 132.452L210.207 132.966C210.433 133.231 210.645 133.508 210.842 133.796C211.074 134.132 211.357 134.505 211.618 134.949L212.033 135.638C212.178 135.879 212.311 136.144 212.448 136.41C212.746 136.937 213.012 137.53 213.278 138.148C214.473 140.867 215.175 143.776 215.352 146.741C215.377 147.421 215.414 148.068 215.389 148.674C215.389 148.977 215.389 149.272 215.364 149.554C215.34 149.836 215.323 150.101 215.302 150.359C215.273 150.877 215.19 151.334 215.136 151.74C215.082 152.147 215.02 152.495 214.958 152.773C214.896 153.051 214.85 153.25 214.813 153.425C214.822 153.499 214.824 153.574 214.817 153.649Z" fill="white"/>
<path d="M230.823 140.932C230.802 140.932 230.79 140.592 230.694 139.994C230.548 139.15 230.268 138.335 229.864 137.579C229.274 136.457 228.479 135.455 227.52 134.625C226.352 133.601 224.999 132.809 223.533 132.294C222.059 131.801 220.519 131.533 218.965 131.497C217.694 131.462 216.421 131.51 215.156 131.642C214.073 131.742 213.198 131.854 212.592 131.92L211.895 131.995C211.814 132.006 211.732 132.006 211.65 131.995C211.727 131.967 211.806 131.949 211.887 131.941L212.58 131.825C213.181 131.729 214.057 131.601 215.14 131.476C216.412 131.325 217.693 131.261 218.973 131.285C220.548 131.317 222.11 131.587 223.604 132.086C225.095 132.614 226.47 133.426 227.653 134.476C228.623 135.327 229.42 136.357 230.001 137.509C230.395 138.289 230.652 139.131 230.761 139.998C230.793 140.232 230.81 140.468 230.81 140.704C230.823 140.779 230.827 140.855 230.823 140.932Z" fill="white"/>
<path d="M186.189 128.921C186.113 128.944 186.033 128.958 185.953 128.962L185.277 129.033L182.787 129.24C180.684 129.402 177.775 129.601 174.564 129.767C171.353 129.933 168.436 130.037 166.324 130.062C165.27 130.062 164.415 130.062 163.835 130.062H163.158C163.079 130.064 162.999 130.056 162.922 130.037C163 130.021 163.079 130.014 163.158 130.016H163.835L166.324 129.954C168.428 129.892 171.34 129.767 174.551 129.597L182.775 129.132L185.264 128.991L185.945 128.962C186.024 128.938 186.106 128.924 186.189 128.921Z" fill="white"/>
<g opacity="0.3">
<path d="M188.599 129.783C191.213 130.55 194.822 130.737 197.382 129.783C195.391 132.616 191.545 133.641 188.205 132.72C184.865 131.799 181.79 128.459 181.533 125.003C183.151 127.181 185.985 129.007 188.599 129.783Z" fill="black"/>
</g>
<path d="M209.796 127.049C209.727 127.074 209.656 127.094 209.584 127.107L208.983 127.236C208.456 127.343 207.696 127.484 206.75 127.65C204.863 127.982 202.245 128.389 199.345 128.746C196.444 129.103 193.802 129.335 191.876 129.468C190.922 129.534 190.146 129.58 189.611 129.6L188.997 129.621C188.926 129.633 188.853 129.633 188.781 129.621C188.851 129.603 188.921 129.592 188.993 129.588L189.607 129.526L191.864 129.322C193.772 129.152 196.403 128.908 199.307 128.538C202.211 128.169 204.821 127.8 206.713 127.509L208.954 127.161L209.568 127.074C209.642 127.052 209.719 127.044 209.796 127.049Z" fill="white"/>
<g opacity="0.3">
<path d="M205.447 108.578C204.791 116.087 206.837 123.539 208.866 130.8C208.956 131.251 209.146 131.676 209.422 132.044C209.564 132.228 209.762 132.361 209.987 132.423C210.211 132.485 210.45 132.473 210.666 132.389C211.301 132.065 211.214 131.144 211.036 130.463L205.397 108.889" fill="black"/>
</g>
<path d="M100.396 116.059L108.922 157.922H182.94C183.332 157.922 183.707 157.766 183.984 157.489C184.261 157.212 184.417 156.837 184.417 156.445C184.417 156.053 184.261 155.677 183.984 155.401C183.707 155.124 183.332 154.968 182.94 154.968H168.037L160.133 116.034C160.059 115.671 159.863 115.345 159.578 115.11C159.292 114.874 158.935 114.743 158.565 114.739L101.998 114.121C101.756 114.118 101.518 114.169 101.299 114.271C101.08 114.372 100.887 114.521 100.733 114.707C100.58 114.893 100.47 115.111 100.411 115.345C100.353 115.579 100.348 115.823 100.396 116.059Z" fill="#E0E0E0"/>
<path d="M100.396 116.059C100.385 116.018 100.377 115.976 100.371 115.934C100.355 115.808 100.355 115.679 100.371 115.553C100.401 115.302 100.486 115.062 100.622 114.85C100.758 114.638 100.94 114.46 101.155 114.329C101.307 114.239 101.472 114.174 101.645 114.138C101.836 114.102 102.031 114.09 102.226 114.1H103.558L106.877 114.13L128.265 114.333L143.176 114.482L151.532 114.569L155.914 114.615L158.15 114.636C158.341 114.636 158.519 114.636 158.722 114.636C158.922 114.655 159.116 114.712 159.295 114.802C159.665 114.976 159.96 115.278 160.125 115.652C160.197 115.835 160.249 116.026 160.278 116.221L160.395 116.785C160.469 117.158 160.548 117.536 160.623 117.913C160.78 118.673 160.934 119.436 161.092 120.199L162.038 124.859C162.676 127.998 163.329 131.211 163.996 134.497C165.332 141.061 166.722 147.886 168.145 154.922L168.045 154.839H182.699C182.892 154.83 183.086 154.841 183.276 154.872C183.673 154.971 184.018 155.217 184.239 155.561C184.365 155.744 184.451 155.951 184.491 156.17C184.532 156.388 184.526 156.612 184.474 156.828C184.423 157.044 184.326 157.247 184.191 157.423C184.056 157.599 183.886 157.745 183.691 157.851C183.476 157.967 183.238 158.031 182.994 158.038H163.714H143.674H108.922H108.86V157.976C106.25 145.114 104.13 134.642 102.662 127.39C101.935 123.763 101.367 120.942 100.981 119.025C100.79 118.067 100.645 117.337 100.566 116.843C100.487 116.349 100.429 116.096 100.429 116.096C100.429 116.096 100.487 116.349 100.591 116.839L101.048 119.013C101.442 120.93 102.023 123.751 102.769 127.369L109.034 157.947L108.956 157.88H143.707H183.023C183.235 157.872 183.441 157.817 183.629 157.719C183.798 157.626 183.946 157.498 184.063 157.344C184.181 157.191 184.264 157.014 184.309 156.826C184.353 156.638 184.358 156.442 184.322 156.252C184.287 156.062 184.212 155.882 184.102 155.723C183.907 155.437 183.61 155.237 183.272 155.163C183.095 155.135 182.916 155.124 182.737 155.13H167.954V155.051C166.527 147.998 165.145 141.185 163.805 134.621C163.138 131.341 162.487 128.128 161.851 124.983L160.88 120.262C160.726 119.494 160.573 118.735 160.419 117.976C160.341 117.598 160.266 117.22 160.187 116.843L160.075 116.283C160.048 116.099 159.999 115.92 159.93 115.748C159.791 115.417 159.54 115.147 159.22 114.984C159.06 114.905 158.888 114.855 158.71 114.835C158.536 114.835 158.337 114.835 158.154 114.835L155.914 114.81L151.532 114.76L143.18 114.661L128.269 114.486L106.881 114.225L103.562 114.179L102.23 114.159C102.039 114.147 101.847 114.157 101.657 114.188C101.49 114.225 101.329 114.288 101.18 114.374C100.967 114.5 100.785 114.673 100.649 114.88C100.513 115.087 100.426 115.323 100.396 115.569C100.375 115.732 100.375 115.896 100.396 116.059Z" fill="#263238"/>
<path d="M134.501 135.231C134.501 135.714 134.357 136.187 134.089 136.589C133.82 136.99 133.439 137.304 132.992 137.489C132.546 137.674 132.054 137.722 131.58 137.628C131.106 137.533 130.671 137.301 130.329 136.959C129.987 136.617 129.755 136.182 129.66 135.708C129.566 135.234 129.614 134.742 129.799 134.296C129.984 133.849 130.297 133.467 130.699 133.199C131.101 132.93 131.574 132.787 132.057 132.787C132.705 132.787 133.327 133.045 133.785 133.503C134.243 133.961 134.501 134.583 134.501 135.231Z" fill="white"/>
<path d="M100.461 116.399C100.461 116.399 100.548 116.399 100.718 116.399H104.344L114.928 116.449L149.842 116.694L154.891 116.735H156.136C156.348 116.725 156.561 116.738 156.771 116.772C156.983 116.814 157.186 116.896 157.368 117.013C157.738 117.247 158.006 117.611 158.119 118.034C158.215 118.449 158.281 118.83 158.364 119.229C158.991 122.382 159.609 125.423 160.169 128.319C161.314 134.127 162.347 139.334 163.21 143.72L165.247 154.092C165.48 155.316 165.662 156.266 165.791 156.918C165.849 157.237 165.894 157.482 165.928 157.656C165.961 157.831 165.965 157.905 165.965 157.905C165.965 157.905 165.94 157.822 165.907 157.66C165.874 157.499 165.816 157.246 165.749 156.926C165.616 156.275 165.421 155.329 165.168 154.109C164.67 151.653 163.957 148.11 163.069 143.737L159.982 128.344C159.405 125.44 158.796 122.407 158.169 119.253C158.086 118.863 158.011 118.457 157.928 118.075C157.825 117.702 157.587 117.381 157.26 117.175C157.097 117.076 156.917 117.008 156.729 116.976C156.533 116.943 156.334 116.932 156.136 116.942H154.891L149.842 116.905L114.924 116.598L104.344 116.482L101.465 116.44H100.718L100.461 116.399Z" fill="#263238"/>
<path d="M199.311 52.8198C199.396 56.6906 198.661 60.5356 197.153 64.1019C195.646 67.6681 193.401 70.8747 190.565 73.5108C189.257 69.7352 187.952 65.9596 186.652 62.1841" fill="#263238"/>
<path d="M169.839 30.291C173.196 28.4571 177.249 28.1916 181 28.9426C184.751 29.6935 188.244 31.3905 191.555 33.3073C193.414 34.3819 195.264 35.5643 196.6 37.2405C199.036 40.3066 201.446 45.3435 201.679 49.2725C201.869 52.4341 200.658 60.3462 199.322 63.2172C198.098 65.8518 192.36 67.86 189.526 68.5113L163.537 38.2653C164.007 36.5849 164.806 35.0146 165.888 33.6456C166.97 32.2767 168.313 31.1364 169.839 30.291Z" fill="#263238"/>
<path d="M165.356 34.3649L171.579 33.2529C168.173 41.3642 167.248 59.9101 165.302 68.4902C163.004 65.171 157.672 55.006 157.958 50.9691C158.245 46.9321 157.975 33.6803 165.356 34.3649Z" fill="#263238"/>
<path d="M194.902 47.8662C194.566 43.1281 191.496 39.2447 186.895 38.0705L172.544 34.4111C166.345 33.7431 162.204 41.369 161.798 47.5924C161.346 54.5088 161.068 61.8027 161.877 66.964C163.499 77.3364 171.448 78.6807 171.448 78.6807C171.448 78.6807 171.448 83.618 171.448 86.6467L176.249 106.524L191.72 85.1489L194.923 47.999C194.936 47.8165 194.902 48.1027 194.902 47.8662Z" fill="#FFBE9D"/>
<path d="M164.912 55.4295C164.909 55.7764 165.041 56.111 165.28 56.3621C165.52 56.6131 165.848 56.7608 166.194 56.7738C166.364 56.7873 166.534 56.7669 166.695 56.7136C166.856 56.6603 167.006 56.5753 167.133 56.4636C167.261 56.3519 167.366 56.2157 167.44 56.063C167.515 55.9104 167.558 55.7443 167.568 55.5747C167.571 55.2285 167.44 54.8945 167.201 54.6436C166.962 54.3926 166.636 54.2445 166.29 54.2305C166.12 54.2163 165.949 54.2364 165.787 54.2894C165.626 54.3424 165.476 54.4273 165.348 54.5391C165.219 54.6509 165.115 54.7873 165.04 54.9402C164.965 55.0931 164.922 55.2595 164.912 55.4295Z" fill="#263238"/>
<path d="M163.369 51.6539C163.535 51.8281 164.543 51.0855 165.975 51.0896C167.406 51.0938 168.464 51.8157 168.609 51.6414C168.688 51.5626 168.518 51.2514 168.062 50.9153C167.443 50.4851 166.707 50.2562 165.954 50.2598C165.21 50.2572 164.484 50.4895 163.88 50.9236C163.423 51.2639 163.274 51.575 163.369 51.6539Z" fill="#263238"/>
<path d="M177.393 55.4293C177.389 55.7762 177.521 56.1107 177.761 56.3618C178 56.6129 178.328 56.7606 178.675 56.7735C178.844 56.7876 179.015 56.7675 179.177 56.7141C179.339 56.6608 179.488 56.5755 179.617 56.4632C179.745 56.351 179.849 56.214 179.923 56.0606C179.997 55.9072 180.04 55.7405 180.048 55.5703C180.052 55.2241 179.92 54.8901 179.682 54.6392C179.443 54.3882 179.116 54.2401 178.77 54.2261C178.6 54.2119 178.429 54.2321 178.267 54.2854C178.105 54.3386 177.955 54.4239 177.827 54.5361C177.698 54.6483 177.594 54.7852 177.519 54.9386C177.444 55.0921 177.402 55.2589 177.393 55.4293Z" fill="#263238"/>
<path d="M176.948 51.6538C177.114 51.8281 178.126 51.0854 179.557 51.0896C180.989 51.0937 182.047 51.8156 182.192 51.6414C182.267 51.5625 182.101 51.2514 181.644 50.9153C181.029 50.489 180.298 50.2603 179.549 50.2598C178.805 50.2586 178.08 50.4908 177.475 50.9236C177.018 51.2638 176.869 51.575 176.948 51.6538Z" fill="#263238"/>
<path d="M172.496 62.8981C172.496 62.8193 171.612 62.6616 170.168 62.4832C169.803 62.4459 169.459 62.3712 169.396 62.1222C169.366 61.7443 169.453 61.3662 169.645 61.0393C169.991 60.157 170.353 59.229 170.732 58.2554C172.243 54.2973 173.334 51.0403 173.176 50.9822C173.019 50.9241 171.662 54.0815 170.152 58.0355C169.786 59.0091 169.439 59.9412 169.11 60.8319C168.879 61.2728 168.81 61.7809 168.915 62.2674C168.968 62.3967 169.049 62.5122 169.154 62.605C169.258 62.6978 169.382 62.7654 169.517 62.8027C169.718 62.8605 169.926 62.8899 170.135 62.8898C171.566 62.9728 172.467 62.9811 172.496 62.8981Z" fill="#263238"/>
<path d="M185.211 74.9839C185.211 74.9839 181.834 82.1243 171.453 81.1161V78.6765C176.293 78.7431 181.055 77.4647 185.211 74.9839Z" fill="#EB996E"/>
<path d="M177.4 46.4804C177.541 46.8704 178.969 46.6878 180.649 46.8953C182.329 47.1027 183.686 47.5633 183.91 47.2148C184.01 47.0447 183.773 46.6796 183.226 46.302C182.499 45.8361 181.671 45.5516 180.811 45.4722C179.952 45.3672 179.081 45.4667 178.268 45.7626C177.649 45.9908 177.338 46.2937 177.4 46.4804Z" fill="#263238"/>
<path d="M163.821 47.273C164.07 47.6007 165.065 47.273 166.244 47.2522C167.422 47.2315 168.434 47.4763 168.667 47.136C168.766 46.9701 168.609 46.6465 168.173 46.3353C167.584 45.9662 166.899 45.7799 166.204 45.7998C165.509 45.8197 164.836 46.045 164.269 46.4473C163.845 46.7792 163.709 47.1153 163.821 47.273Z" fill="#263238"/>
<path d="M164.615 38.1123C165.25 36.5523 166.963 35.6229 168.644 35.5316C170.324 35.4403 171.963 36.0834 173.432 36.9257C179.609 40.4979 182.788 49.1237 188.891 52.8204C190.393 53.729 192.347 52.8951 193.625 54.0983C194.903 55.3015 195.728 57.2266 195.023 58.8323C195.897 57.7464 196.611 56.5406 197.143 55.2517C197.608 53.9365 197.666 52.4138 196.969 51.2064C196.442 50.2895 195.508 49.5925 195.255 48.5677C195.027 47.6632 195.384 46.7214 195.347 45.792C195.241 44.8476 194.915 43.9411 194.396 43.145C192.002 38.9172 188.712 35.0918 184.476 32.7103C181.711 31.1135 178.562 30.3002 175.369 30.3578C172.158 30.4298 169.079 31.6501 166.69 33.7973C165.325 35.0711 163.889 36.3863 164.615 38.1123Z" fill="#263238"/>
<path d="M193.475 55.384C193.582 55.0853 198.997 53.1353 199.067 58.8857C199.138 64.4744 193.5 63.3749 193.487 63.2131C193.475 63.0513 193.475 55.384 193.475 55.384Z" fill="#FFBE9D"/>
<path d="M195.193 61.0808C195.218 61.0808 195.289 61.1472 195.455 61.2219C195.689 61.3152 195.95 61.3152 196.185 61.2219C196.77 61.002 197.259 60.056 197.276 59.052C197.288 58.572 197.191 58.0956 196.994 57.6579C196.939 57.4841 196.842 57.3263 196.713 57.1977C196.584 57.0691 196.425 56.9736 196.251 56.9194C196.14 56.8904 196.022 56.9016 195.918 56.9509C195.814 57.0002 195.731 57.0845 195.683 57.1891C195.608 57.3468 195.646 57.4588 195.612 57.4671C195.579 57.4754 195.492 57.3758 195.538 57.1435C195.568 57.0063 195.644 56.8834 195.753 56.7949C195.828 56.7359 195.914 56.6923 196.006 56.6667C196.098 56.6411 196.194 56.6339 196.289 56.6456C196.519 56.6884 196.734 56.79 196.914 56.9405C197.093 57.0909 197.231 57.2852 197.313 57.5044C197.558 57.9845 197.679 58.5177 197.666 59.0561C197.641 60.1847 197.077 61.2426 196.268 61.4833C196.119 61.5285 195.962 61.5396 195.808 61.5159C195.655 61.4922 195.508 61.4343 195.38 61.3464C195.202 61.2178 195.173 61.0933 195.193 61.0808Z" fill="#EB996E"/>
<path d="M195.699 52.5129C195.582 52.4606 195.469 52.3981 195.363 52.3262C195.147 52.1893 194.815 52.0068 194.425 51.7288C193.323 50.9236 192.31 50.0029 191.405 48.9822C190.087 47.4548 188.855 45.8549 187.716 44.1901C186.344 42.1499 184.802 40.229 183.107 38.4479C182.202 37.558 181.203 36.7692 180.128 36.0954C179.12 35.4811 178.042 34.9908 176.916 34.635C175.006 34.0222 172.997 33.7759 170.996 33.9089C169.645 33.9913 168.311 34.2522 167.029 34.6848C166.569 34.8259 166.229 34.9794 165.992 35.0706C165.875 35.1245 165.752 35.1676 165.627 35.1993C165.737 35.133 165.852 35.0748 165.971 35.025C166.304 34.8658 166.646 34.7272 166.996 34.6101C168.277 34.1333 169.62 33.8427 170.983 33.7471C173.009 33.5814 175.047 33.8068 176.987 34.411C178.134 34.7644 179.234 35.2577 180.26 35.8797C181.352 36.5634 182.366 37.3633 183.285 38.2654C184.991 40.0641 186.537 42.0076 187.907 44.0739C189.034 45.739 190.247 47.344 191.541 48.8826C192.429 49.9052 193.414 50.839 194.483 51.6707C194.865 51.957 195.184 52.152 195.388 52.3013C195.497 52.3632 195.601 52.4339 195.699 52.5129Z" fill="#455A64"/>
<path d="M195.828 62.0685C196.103 62.0178 196.387 62.0738 196.622 62.2252C196.857 62.3765 197.026 62.6119 197.094 62.8832C197.162 63.1546 197.124 63.4416 196.987 63.6858C196.851 63.93 196.626 64.1131 196.36 64.1977C196.093 64.2823 195.804 64.2622 195.552 64.1414C195.3 64.0205 195.103 63.8081 195.002 63.5473C194.901 63.2865 194.903 62.997 195.008 62.7376C195.113 62.4783 195.312 62.2687 195.566 62.1515" fill="white"/>
<path d="M195.565 62.1508C195.325 62.3443 195.15 62.6062 195.063 62.9018C195.023 63.0541 195.022 63.214 195.06 63.3669C195.097 63.5197 195.173 63.6608 195.279 63.7772C195.403 63.9243 195.569 64.0313 195.754 64.0847C195.939 64.1382 196.136 64.1357 196.32 64.0777C196.504 64.0196 196.667 63.9086 196.788 63.7584C196.909 63.6083 196.983 63.4258 197.001 63.2337C197.017 63.0788 196.996 62.9221 196.938 62.7774C196.88 62.6327 196.788 62.5044 196.669 62.4039C196.431 62.2139 196.142 62.101 195.839 62.0803C195.839 62.0803 195.922 62.0222 196.1 62.0181C196.353 62.0201 196.598 62.1062 196.797 62.2629C196.953 62.378 197.075 62.5313 197.154 62.708C197.232 62.8846 197.264 63.0786 197.245 63.2711C197.23 63.5117 197.142 63.7421 196.993 63.932C196.844 64.1219 196.642 64.2626 196.412 64.3356C196.182 64.4087 195.935 64.4107 195.704 64.3414C195.473 64.2721 195.269 64.1348 195.117 63.9473C194.991 63.8013 194.905 63.6253 194.867 63.4363C194.83 63.2473 194.841 63.0518 194.901 62.8686C194.967 62.6268 195.113 62.4146 195.316 62.267C195.461 62.155 195.561 62.1384 195.565 62.1508Z" fill="#263238"/>
<path d="M194.293 54.0937C194.38 55.6206 194.451 57.2304 193.745 58.5871C193.04 59.9438 191.256 60.869 189.937 60.1097C188.854 59.4915 188.53 58.1016 188.344 56.8694C187.817 53.3096 187.572 49.7124 187.012 46.1567L194.293 54.0937Z" fill="#263238"/>
<path d="M165.99 35.4565C165.99 35.4855 166.484 35.361 167.376 35.332C168.642 35.3127 169.899 35.5425 171.077 36.0083C171.889 36.3228 172.665 36.7234 173.392 37.2032C174.225 37.7624 175.023 38.372 175.782 39.0287C177.54 40.5155 179.111 42.2095 180.462 44.0739C181.171 45.0696 181.802 46.0944 182.482 47.0446C183.129 47.9684 183.881 48.8136 184.723 49.563C186.172 50.791 187.756 51.8503 189.444 52.7204C190.876 53.4755 192.071 54.0065 192.896 54.3799L193.851 54.7948C193.961 54.8487 194.076 54.8904 194.195 54.9193C194.097 54.8481 193.991 54.7883 193.88 54.7409L192.946 54.2804C192.116 53.8655 190.959 53.3178 189.552 52.5419C187.894 51.6492 186.339 50.578 184.914 49.3472C184.091 48.6057 183.359 47.7702 182.731 46.8579C182.063 45.9202 181.437 44.8954 180.719 43.8872C179.354 42.0029 177.759 40.2956 175.973 38.8047C175.198 38.1462 174.383 37.5365 173.533 36.9791C172.786 36.4995 171.989 36.103 171.156 35.7967C169.949 35.3394 168.66 35.1387 167.372 35.2075C167.024 35.2278 166.679 35.2764 166.339 35.3527C166.218 35.3712 166.101 35.4061 165.99 35.4565Z" fill="#455A64"/>
<path d="M194.445 50.6413C194.596 50.771 194.762 50.8824 194.939 50.9733L196.358 51.8031L196.831 52.0727C197.018 52.1858 197.228 52.2553 197.445 52.276C197.577 52.2904 197.71 52.2597 197.823 52.1889C197.883 52.1468 197.932 52.0918 197.968 52.0279C198.004 51.964 198.025 51.8928 198.03 51.8197C198.018 51.5632 197.926 51.3169 197.769 51.1143L196.109 48.4839L195.885 48.6872C196.981 49.4941 198.323 49.8946 199.681 49.8199C199.855 49.8185 200.027 49.7891 200.192 49.7327C200.284 49.7027 200.368 49.6535 200.44 49.5884C200.511 49.5233 200.568 49.4438 200.607 49.3552C200.638 49.2605 200.646 49.1595 200.63 49.0611C200.613 48.9626 200.572 48.8698 200.511 48.7909C200.419 48.6637 200.313 48.5469 200.196 48.4424C199.458 47.7291 198.818 46.9213 198.291 46.0401C197.827 45.2123 197.423 44.3527 197.08 43.4678C197.106 43.7249 197.166 43.9774 197.258 44.2187C197.467 44.8902 197.745 45.5382 198.088 46.1522C198.598 47.0672 199.235 47.9053 199.98 48.6415C200.187 48.8407 200.395 49.0564 200.316 49.2431C200.237 49.4298 199.93 49.5087 199.636 49.5087C198.997 49.5408 198.357 49.4637 197.744 49.2805C197.133 49.1012 196.557 48.8207 196.039 48.4507L195.375 47.9611L195.819 48.654L197.478 51.2637C197.608 51.4199 197.69 51.61 197.715 51.8114C197.715 51.969 197.574 52.0603 197.395 52.0478C197.036 51.9771 196.695 51.8361 196.391 51.633L194.931 50.8861C194.778 50.7877 194.615 50.7056 194.445 50.6413Z" fill="#455A64"/>
<path d="M177.919 65.5285C177.815 65.1033 177.565 64.7283 177.212 64.4689C176.859 64.2096 176.427 64.0824 175.99 64.1096C175.671 64.1487 175.366 64.2667 175.104 64.4528C174.842 64.639 174.63 64.8874 174.488 65.1758C174.349 65.466 174.27 65.7812 174.255 66.1026C174.24 66.424 174.289 66.7452 174.401 67.047L174.434 67.1798C174.732 67.5009 175.122 67.7222 175.55 67.8135C175.979 67.9049 176.425 67.8618 176.828 67.6901C177.223 67.5004 177.544 67.1856 177.741 66.7947C177.938 66.4038 178.001 65.9587 177.919 65.5285Z" fill="#EB996E"/>
<path d="M173.393 67.2203C173.393 67.0045 174.841 67.0709 175.932 65.8843C177.023 64.6977 176.936 63.146 177.139 63.146C177.231 63.146 177.405 63.5028 177.388 64.1583C177.359 65.0055 177.031 65.815 176.463 66.4444C175.915 67.0499 175.154 67.4188 174.339 67.4734C173.741 67.4983 173.38 67.3199 173.393 67.2203Z" fill="#263238"/>
<path d="M222.169 155.146C222.137 155.15 222.105 155.15 222.074 155.146L221.783 155.175L220.675 155.266C219.713 155.345 218.319 155.436 216.593 155.54C213.145 155.743 208.378 155.955 203.109 156.042C197.84 156.129 193.06 156.08 189.608 155.988C187.882 155.947 186.484 155.897 185.521 155.855L184.409 155.797H185.521L189.612 155.868C193.064 155.918 197.835 155.943 203.105 155.868C208.374 155.793 213.137 155.594 216.585 155.428L220.671 155.225L221.783 155.175H222.07L222.169 155.146Z" fill="white"/>
<defs>
<filter id="filter0_d_5211_835" x="24.8334" y="0.966309" width="108.364" height="100.911" filterUnits="userSpaceOnUse" color-interpolation-filters="sRGB">
<feFlood flood-opacity="0" result="BackgroundImageFix"/>
<feColorMatrix in="SourceAlpha" type="matrix" values="0 0 0 0 0 0 0 0 0 0 0 0 0 0 0 0 0 0 127 0" result="hardAlpha"/>
<feOffset dy="4.16661"/>
<feGaussianBlur stdDeviation="2.08331"/>
<feComposite in2="hardAlpha" operator="out"/>
<feColorMatrix type="matrix" values="0 0 0 0 0.262745 0 0 0 0 0.572549 0 0 0 0 0.945098 0 0 0 0.09 0"/>
<feBlend mode="normal" in2="BackgroundImageFix" result="effect1_dropShadow_5211_835"/>
<feBlend mode="normal" in="SourceGraphic" in2="effect1_dropShadow_5211_835" result="shape"/>
</filter>
<filter id="filter1_d_5211_835" x="97.7787" y="91.6797" width="23.6692" height="18.4895" filterUnits="userSpaceOnUse" color-interpolation-filters="sRGB">
<feFlood flood-opacity="0" result="BackgroundImageFix"/>
<feColorMatrix in="SourceAlpha" type="matrix" values="0 0 0 0 0 0 0 0 0 0 0 0 0 0 0 0 0 0 127 0" result="hardAlpha"/>
<feOffset dy="4.16661"/>
<feGaussianBlur stdDeviation="2.08331"/>
<feComposite in2="hardAlpha" operator="out"/>
<feColorMatrix type="matrix" values="0 0 0 0 0.262745 0 0 0 0 0.572549 0 0 0 0 0.945098 0 0 0 0.09 0"/>
<feBlend mode="normal" in2="BackgroundImageFix" result="effect1_dropShadow_5211_835"/>
<feBlend mode="normal" in="SourceGraphic" in2="effect1_dropShadow_5211_835" result="shape"/>
</filter>
</defs>
</svg>
