<svg width="20" height="20" viewBox="0 0 20 20" fill="none" xmlns="http://www.w3.org/2000/svg">
<path d="M9.99997 19.1019C11.0912 19.1019 12.031 18.4428 12.4433 17.502H7.55664C7.96898 18.4428 8.90874 19.1019 9.99997 19.1019Z" fill="white"/>
<path d="M15.5111 9.71027V8.54186C15.5111 6.05931 13.8609 3.95518 11.6 3.26793V2.49745C11.6 1.61522 10.8822 0.897461 9.99999 0.897461C9.11776 0.897461 8.4 1.61522 8.4 2.49745V3.26793C6.13904 3.95518 4.48891 6.05928 4.48891 8.54186V9.71027C4.48891 11.891 3.6577 13.9587 2.14841 15.5327C2.0005 15.6869 1.95894 15.9145 2.04278 16.111C2.12662 16.3076 2.31968 16.4351 2.53337 16.4351H17.4666C17.6803 16.4351 17.8733 16.3076 17.9572 16.111C18.041 15.9145 17.9994 15.6869 17.8516 15.5327C16.3423 13.9587 15.5111 11.8909 15.5111 9.71027ZM10.5333 3.05666C10.3578 3.03974 10.1799 3.03078 9.99999 3.03078C9.82008 3.03078 9.6422 3.03974 9.46666 3.05666V2.49745C9.46666 2.20337 9.70591 1.96412 9.99999 1.96412C10.2941 1.96412 10.5333 2.20337 10.5333 2.49745V3.05666Z" fill="white"/>
<path d="M16.933 8.54157C16.933 8.83611 17.1718 9.0749 17.4663 9.0749C17.7609 9.0749 17.9997 8.83611 17.9997 8.54157C17.9997 6.40469 17.1675 4.39571 15.6565 2.88471C15.4483 2.67647 15.1106 2.67643 14.9023 2.88471C14.694 3.093 14.694 3.43067 14.9023 3.63895C16.2118 4.94849 16.933 6.6896 16.933 8.54157Z" fill="white"/>
<path d="M2.53333 9.07487C2.82787 9.07487 3.06666 8.83608 3.06666 8.54154C3.06666 6.68961 3.78786 4.9485 5.09737 3.63896C5.30565 3.43068 5.30565 3.09301 5.09737 2.88473C4.88912 2.67644 4.55141 2.67644 4.34313 2.88473C2.83214 4.39572 2 6.40467 2 8.54154C2 8.83608 2.23879 9.07487 2.53333 9.07487Z" fill="white"/>
</svg>
