<svg width="26" height="27" viewBox="0 0 26 27" fill="none" xmlns="http://www.w3.org/2000/svg">
<path fill-rule="evenodd" clip-rule="evenodd" d="M6.46162 1.5904H6.81162H23.5221H23.8721V1.75839V1.9404V2.1084V21.6075V21.7755C23.8721 23.3316 22.6707 24.5839 21.1349 24.5839C19.5991 24.5839 18.3977 23.3316 18.3977 21.7755V21.6075V19.3171V19.1491V18.4379H0.843607H0V19.1491V19.3171V21.6075C0 24.1249 2.00459 26.1743 4.42442 26.1743H21.1349C23.5547 26.1743 25.5593 24.1249 25.5593 21.6075V0.879195V0.711196V0H24.7157H5.61802H4.77442V0.711196V0.879195V16.3407H6.46162V2.1084V1.9404V1.75839V1.5904ZM1.68721 20.0283H2.03721H16.3605H16.7105V20.1963V20.3783V20.5463V21.6075C16.7105 22.4398 16.9463 23.2102 17.3358 23.8924L17.6347 24.4159H17.5388L17.6347 24.5839H17.0319H4.42442C2.88864 24.5839 1.68721 23.3316 1.68721 21.7755V21.6075V20.5463V20.3783V20.1963V20.0283ZM9.54888 8.96557H11.2361V7.37517H9.54888V8.96557ZM14.3233 8.96557H20.7849V7.37517H14.3233V8.96557ZM9.54888 13.8823H11.2361V12.2919H9.54888V13.8823ZM14.3233 13.8823H20.7849V12.2919H14.3233V13.8823Z" fill="black"/>
</svg>
