<svg width="26" height="27" viewBox="0 0 26 27" fill="none" xmlns="http://www.w3.org/2000/svg">
<path d="M12.9854 8.44058V13.5936L16.206 16.8142" stroke="#222222" stroke-width="2.02899" stroke-linecap="round" stroke-linejoin="round"/>
<path d="M4.74588 5.35477L4.02853 4.63741L4.02853 4.63742L4.74588 5.35477ZM3.11448 6.98618L2.1 6.99128C2.10279 7.54758 2.55307 7.99786 3.10938 8.00066L3.11448 6.98618ZM6.38867 8.01714C6.94895 8.01995 7.40543 7.56804 7.40825 7.00776C7.41107 6.44747 6.95915 5.99099 6.39887 5.98818L6.38867 8.01714ZM4.11248 3.70179C4.10966 3.1415 3.65318 2.68959 3.0929 2.6924C2.53262 2.69522 2.0807 3.1517 2.08352 3.71198L4.11248 3.70179ZM2.50385 12.0354C2.57993 11.4803 2.19162 10.9687 1.63652 10.8926C1.08142 10.8165 0.569744 11.2048 0.493657 11.7599L2.50385 12.0354ZM21.8597 4.71981C16.9198 -0.220072 8.9365 -0.270557 4.02853 4.63741L5.46324 6.07212C9.56528 1.97008 16.2639 1.99338 20.425 6.15452L21.8597 4.71981ZM4.11092 22.4686C9.05081 27.4085 17.0341 27.459 21.9421 22.551L20.5074 21.1163C16.4053 25.2183 9.70678 25.195 5.54563 21.0339L4.11092 22.4686ZM21.9421 22.551C26.8501 17.643 26.7996 9.65969 21.8597 4.71981L20.425 6.15452C24.5861 10.3157 24.6094 17.0142 20.5074 21.1163L21.9421 22.551ZM4.02853 4.63742L2.39712 6.26882L3.83183 7.70353L5.46324 6.07212L4.02853 4.63742ZM3.10938 8.00066L6.38867 8.01714L6.39887 5.98818L3.11957 5.9717L3.10938 8.00066ZM4.12896 6.98108L4.11248 3.70179L2.08352 3.71198L2.1 6.99128L4.12896 6.98108ZM0.493657 11.7599C-0.0254651 15.5472 1.18347 19.5411 4.11092 22.4686L5.54563 21.0339C3.08252 18.5708 2.06786 15.2162 2.50385 12.0354L0.493657 11.7599Z" fill="#222222"/>
</svg>
